<svg xmlns="http://www.w3.org/2000/svg" xmlns:xlink="http://www.w3.org/1999/xlink" width="50" height="52" viewBox="0 0 50 52">
  <defs>
    <clipPath id="clip-Ig">
      <rect width="50" height="52"/>
    </clipPath>
  </defs>
  <g id="Ig" clip-path="url(#clip-Ig)">
    <path id="Instagram_Circle" data-name="Instagram Circle" d="M19.5,0A19.5,19.5,0,1,0,39,19.5,19.5,19.5,0,0,0,19.5,0Zm5.85,29.25H13.65a3.9,3.9,0,0,1-3.9-3.9v-11.7a3.9,3.9,0,0,1,3.9-3.9h11.7a3.9,3.9,0,0,1,3.9,3.9v11.7A3.9,3.9,0,0,1,25.35,29.25ZM19.5,15.6a3.9,3.9,0,1,0,3.9,3.9A3.9,3.9,0,0,0,19.5,15.6Zm6.825-2.926H23.4V15.6h2.925Zm.975,5.851H25.251a5.749,5.749,0,0,1,.1.974,5.851,5.851,0,1,1-11.6-.974H11.7v6.825A1.949,1.949,0,0,0,13.65,27.3h11.7a1.949,1.949,0,0,0,1.95-1.949Z" transform="translate(5 6)" fill="#fff" fill-rule="evenodd"/>
  </g>
</svg>
