<svg xmlns="http://www.w3.org/2000/svg" xmlns:xlink="http://www.w3.org/1999/xlink" width="18" height="19" viewBox="0 0 18 19">
  <defs>
    <clipPath id="clip-flecha2">
      <rect width="18" height="19"/>
    </clipPath>
  </defs>
  <g id="flecha2" clip-path="url(#clip-flecha2)">
    <path id="Left_Arrow_2" data-name="Left Arrow 2" d="M791.883,3466.64h0l-6.932,6.86,6.932,6.86h0a.362.362,0,0,1,.117.265.388.388,0,0,1-.4.375.411.411,0,0,1-.283-.11h0l-7.2-7.125h0a.359.359,0,0,1,0-.53l7.2-7.125a.413.413,0,0,1,.283-.11.388.388,0,0,1,.4.375A.361.361,0,0,1,791.883,3466.64Z" transform="matrix(-1, -0.017, 0.017, -1, 737.259, 3496.223)" fill="#fff" stroke="#fff" stroke-width="3" fill-rule="evenodd"/>
  </g>
</svg>
