<svg xmlns="http://www.w3.org/2000/svg" xmlns:xlink="http://www.w3.org/1999/xlink" width="73" height="76" viewBox="0 0 73 76">
  <defs>
    <clipPath id="clip-Fries">
      <rect width="73" height="76"/>
    </clipPath>
  </defs>
  <g id="Fries" clip-path="url(#clip-Fries)">
    <g id="Group_583" data-name="Group 583" transform="translate(1439.978 -779.435)">
      <g id="Fd6bfQ" transform="translate(-1427.978 789.435)">
        <g id="Group_549" data-name="Group 549" transform="translate(2.778 22.641)">
          <g id="Group_548" data-name="Group 548">
            <path id="Path_188" data-name="Path 188" d="M-1378.88,833.963c-1.012,3.64-2,7.168-2.975,10.7q-2.716,9.779-5.423,19.559c-.157.569-.209,1.072-1.038,1.069-8.446-.029-16.892-.017-25.511-.017l-8.689-31.3c2.285,0,4.448-.033,6.608.039.287.009.662.5.82.85,5.1,11.265,19.056,11.2,25.076,5.087a29.877,29.877,0,0,0,3.643-5.086c.368-.58.6-.931,1.34-.911C-1383.024,834-1381.017,833.963-1378.88,833.963Z" transform="translate(1422.517 -833.943)" fill="#fff"/>
          </g>
        </g>
        <g id="Group_551" data-name="Group 551" transform="translate(12.714 2.625)">
          <g id="Group_550" data-name="Group 550">
            <path id="Path_189" data-name="Path 189" d="M-1394.243,822.137a11.428,11.428,0,0,1-5.826-2.934,2.838,2.838,0,0,1-.652-1.632c-.552-5.216-1.053-10.438-1.57-15.658-.227-2.3-.453-4.591-.695-7.038l5.92-.279C-1396.125,803.767-1395.193,812.863-1394.243,822.137Z" transform="translate(1402.985 -794.596)" fill="#fff"/>
          </g>
        </g>
        <g id="Group_553" data-name="Group 553" transform="translate(27.824 2.648)">
          <g id="Group_552" data-name="Group 552">
            <path id="Path_190" data-name="Path 190" d="M-1371.1,794.641l5.844.673c-.112,1.4-.2,2.743-.326,4.083q-.866,9.5-1.761,19a1.761,1.761,0,0,1-.464,1.076,11.389,11.389,0,0,1-5.474,2.646C-1372.551,812.916-1371.83,803.837-1371.1,794.641Z" transform="translate(1373.281 -794.641)" fill="#fff"/>
          </g>
        </g>
        <g id="Group_555" data-name="Group 555" transform="translate(21.218 6.098)">
          <g id="Group_554" data-name="Group 554">
            <path id="Path_191" data-name="Path 191" d="M-1386.267,801.423h6.317l-1.913,24.186c-1.819.493-1.948.372-2.121-1.38-.684-6.9-1.4-13.8-2.1-20.7C-1386.149,802.87-1386.2,802.215-1386.267,801.423Z" transform="translate(1386.267 -801.423)" fill="#fff"/>
          </g>
        </g>
        <g id="Group_557" data-name="Group 557" transform="translate(4.639 6.496)">
          <g id="Group_556" data-name="Group 556">
            <path id="Path_192" data-name="Path 192" d="M-1411.024,818.258c-.919-3.591-3.872-1.561-5.962-2.31-.607-4.089-1.234-8.307-1.873-12.608l6.228-1.135C-1412.089,807.625-1411.557,812.942-1411.024,818.258Z" transform="translate(1418.859 -802.205)" fill="#fff"/>
          </g>
        </g>
        <g id="Group_559" data-name="Group 559" transform="translate(36.232 10.399)">
          <g id="Group_558" data-name="Group 558">
            <path id="Path_193" data-name="Path 193" d="M-1355.561,809.877l6.472.717c-.577,3.139-1.134,6.173-1.709,9.3-.945,0-1.846.049-2.738-.012a1.824,1.824,0,0,0-2.2,1.479,10.6,10.6,0,0,1-.724,1.641l-.3-.07C-1356.362,818.652-1355.971,814.369-1355.561,809.877Z" transform="translate(1356.753 -809.877)" fill="#fff"/>
          </g>
        </g>
        <g id="Group_565" data-name="Group 565">
          <g id="Group_564" data-name="Group 564">
            <g id="Group_561" data-name="Group 561" transform="translate(0.303 0.302)">
              <g id="Group_560" data-name="Group 560">
                <path id="Path_194" data-name="Path 194" d="M-1399.026,790.028h1.231c2.262.3,4.519.655,6.789.895,1.178.125,1.537.677,1.414,1.806-.187,1.706-.288,3.422-.429,5.173,2.267.273,4.376.543,6.489.778,2.08.232,2.3.53,1.9,2.578-.559,2.915-1.085,5.836-1.623,8.739.141.062.215.121.29.122.779.014,1.558.02,2.337.026,1.751.014,2.1.482,1.62,2.213q-4.433,15.979-8.885,31.952a9.514,9.514,0,0,1-.8,1.615h-28.8a9.641,9.641,0,0,1-.8-1.614c-1.442-5.079-2.851-10.168-4.266-15.256q-2.337-8.408-4.665-16.819c-.432-1.563-.054-2.065,1.547-2.089.729-.011,1.458,0,2.236,0a5.042,5.042,0,0,0,0-.6c-.592-4.005-1.175-8.011-1.788-12.012-.265-1.727-.074-2.01,1.624-2.311,2.166-.384,4.327-.8,6.545-1.214-.042-.485-.061-.849-.107-1.21-.252-1.972-.053-2.219,1.923-2.346q3.306-.212,6.612-.42h.739c1.454.739.716,2.3,1.264,3.451h6.337Zm17.756,22.359c-2.137,0-4.144.036-6.149-.018-.741-.02-.972.33-1.34.911a29.884,29.884,0,0,1-3.643,5.086c-6.021,6.109-19.979,6.178-25.077-5.087-.158-.349-.533-.84-.82-.849-2.16-.072-4.323-.039-6.608-.039l8.689,31.3c8.619,0,17.065-.011,25.511.017.83,0,.881-.5,1.038-1.069q2.7-9.782,5.423-19.559C-1383.266,819.555-1382.283,816.027-1381.271,812.387Zm-24.959,7.506c-.95-9.274-1.882-18.37-2.822-27.541l-5.92.279c.242,2.447.468,4.743.695,7.038.516,5.22,1.018,10.442,1.57,15.658a2.837,2.837,0,0,0,.652,1.632A11.427,11.427,0,0,0-1406.229,819.893Zm8.549-27.518c-.729,9.2-1.45,18.275-2.18,27.482a11.389,11.389,0,0,0,5.474-2.646,1.762,1.762,0,0,0,.464-1.076q.906-9.5,1.761-19c.123-1.34.215-2.682.326-4.083Zm-8.786,3.45c.069.792.118,1.447.184,2.1.7,6.9,1.414,13.8,2.1,20.7.173,1.751.3,1.873,2.121,1.38l1.913-24.186Zm-8.745,16.451c-.532-5.316-1.064-10.633-1.607-16.053l-6.228,1.135,1.873,12.608C-1419.084,810.715-1416.131,808.685-1415.212,812.276Zm24.951-12.15c-.41,4.492-.8,8.775-1.192,13.057l.3.07a10.632,10.632,0,0,0,.724-1.641,1.824,1.824,0,0,1,2.2-1.479c.892.062,1.793.012,2.738.012.575-3.131,1.132-6.164,1.709-9.3Z" transform="translate(1427.383 -790.028)"/>
              </g>
            </g>
            <g id="Group_563" data-name="Group 563">
              <g id="Group_562" data-name="Group 562">
                <path id="Path_195" data-name="Path 195" d="M-1388.793,845.935h-29.176l-.083-.166c-.083-.163-.173-.322-.269-.49a5.432,5.432,0,0,1-.549-1.177c-1.246-4.39-2.489-8.861-3.69-13.184l-.576-2.073q-2.337-8.408-4.665-16.819c-.255-.923-.236-1.486.063-1.885s.826-.571,1.77-.586c.5-.008.993-.006,1.513,0l.431,0a1.53,1.53,0,0,0-.006-.258l-.369-2.505c-.459-3.117-.934-6.339-1.419-9.506-.292-1.9.006-2.324,1.871-2.654,1.511-.268,2.986-.545,4.547-.839l1.728-.324c-.005-.063-.01-.123-.014-.182-.021-.274-.039-.511-.069-.743-.137-1.069-.145-1.687.194-2.1s.942-.519,2.009-.588l4.766-.3,1.846-.117h.83l.064.033a2.35,2.35,0,0,1,1.172,2.325,4.1,4.1,0,0,0,.157,1.093h5.923l1.262-3.451,1.482,0c.663.089,1.326.183,1.989.276,1.569.221,3.192.449,4.791.618a1.936,1.936,0,0,1,1.378.61,1.987,1.987,0,0,1,.3,1.529c-.13,1.189-.217,2.358-.308,3.6q-.047.637-.1,1.28l1.769.216c1.528.187,2.97.364,4.43.526,1.121.125,1.751.272,2.089.729s.29,1.1.078,2.206c-.391,2.04-.772,4.116-1.141,6.124q-.219,1.191-.438,2.38c.745.013,1.49.019,2.234.025h.054c1.033.008,1.578.174,1.879.575s.314.991.029,2.021l-.624,2.248c-2.7,9.738-5.494,19.806-8.261,29.7a5.3,5.3,0,0,1-.548,1.177c-.1.169-.188.329-.27.492Zm-28.807-.6h28.438c.065-.12.132-.239.2-.354a4.75,4.75,0,0,0,.491-1.041c2.767-9.9,5.56-19.966,8.261-29.7l.623-2.248c.223-.8.245-1.265.071-1.5s-.6-.329-1.4-.335h-.055c-.761-.006-1.523-.012-2.285-.025a.658.658,0,0,1-.294-.093c-.031-.016-.067-.035-.111-.054l-.22-.1.044-.237q.242-1.3.481-2.612c.369-2.009.75-4.085,1.141-6.128.171-.891.23-1.461.029-1.734s-.766-.386-1.67-.487c-1.463-.163-2.907-.34-4.436-.528l-2.056-.251-.288-.035.023-.289c.042-.525.081-1.046.12-1.566.088-1.188.179-2.417.31-3.616a1.453,1.453,0,0,0-.174-1.084,1.391,1.391,0,0,0-.972-.389c-1.609-.17-3.237-.4-4.811-.621q-.983-.138-1.966-.273h-1l-1.263,3.451h-6.738l-.082-.172a3.868,3.868,0,0,1-.285-1.49c-.044-.779-.079-1.4-.782-1.789h-.663l-1.828.116-4.765.3c-.854.055-1.387.133-1.582.37s-.171.78-.061,1.637c.032.247.051.491.072.773.011.139.022.287.036.449l.023.273-.269.05-1.994.374c-1.563.295-3.04.572-4.553.84-1.529.271-1.62.4-1.379,1.969.485,3.168.96,6.392,1.419,9.509l.369,2.5a2.143,2.143,0,0,1,.011.393c0,.073,0,.157,0,.256v.3h-.3l-.729,0c-.518,0-1.008,0-1.5,0-.717.011-1.129.12-1.3.344s-.158.659.037,1.363q2.325,8.411,4.664,16.818l.576,2.073c1.2,4.323,2.443,8.792,3.689,13.181a4.907,4.907,0,0,0,.492,1.043C-1417.73,845.095-1417.664,845.212-1417.6,845.332Zm26.607-1.61H-1391c-6.6-.022-13.05-.02-19.879-.019h-5.86L-1425.6,811.8h.4q.823,0,1.628,0c1.719-.007,3.344-.012,4.99.043.516.017.958.747,1.085,1.027a14.842,14.842,0,0,0,11.169,8.763c5.016.894,10.282-.582,13.417-3.764a24.808,24.808,0,0,0,3.135-4.294q.234-.372.468-.742c.366-.577.687-1.082,1.6-1.05,1.424.039,2.833.032,4.326.024.6,0,1.2-.006,1.814-.006h.4l-1.084,3.9c-.673,2.417-1.336,4.8-2,7.181l-.671,2.417c-1.56,5.618-3.174,11.426-4.752,17.142l-.039.146C-1389.844,843.087-1390.01,843.722-1390.993,843.722Zm-14.263-.623c4.808,0,9.493,0,14.257.019.53,0,.576-.2.705-.694.013-.05.027-.1.041-.153,1.578-5.716,3.192-11.525,4.752-17.143l.672-2.417c.662-2.383,1.325-4.766,2-7.182l.871-3.13-1.414.006c-1.5.007-2.912.014-4.345-.024-.552-.012-.7.174-1.078.771q-.233.368-.465.739a25.272,25.272,0,0,1-3.218,4.4c-3.27,3.319-8.747,4.863-13.953,3.934a15.43,15.43,0,0,1-11.613-9.109,1.424,1.424,0,0,0-.558-.672c-1.632-.054-3.251-.049-4.965-.042l-1.233,0,8.522,30.7h11.025Zm1.624-22.827a.984.984,0,0,1-.579-.157c-.4-.277-.477-.844-.566-1.746-.471-4.749-.964-9.576-1.44-14.244q-.33-3.23-.658-6.459c-.045-.44-.082-.88-.122-1.361-.02-.237-.04-.483-.063-.745l-.028-.328h6.972l-1.955,24.724-.2.055A5.708,5.708,0,0,1-1403.632,820.272Zm-2.8-24.437c.012.143.024.283.035.419.04.477.077.914.121,1.35q.328,3.23.658,6.459c.477,4.668.969,9.5,1.44,14.246.064.643.131,1.186.308,1.308s.664.013,1.229-.135l1.87-23.648Zm.252,24.151-.407-.089a11.658,11.658,0,0,1-5.973-3.014,3.23,3.23,0,0,1-.74-1.816c-.429-4.058-.835-8.186-1.227-12.179q-.172-1.74-.343-3.481l-.726-7.354,6.523-.307Zm-8.753-27.36.664,6.722q.172,1.741.342,3.481c.392,3.992.8,8.119,1.227,12.174a2.568,2.568,0,0,0,.563,1.449,10.835,10.835,0,0,0,5.271,2.76l-2.75-26.837Zm14.446,27.315,2.237-28.193,6.444.741-.023.29c-.036.446-.069.886-.1,1.322-.072.952-.141,1.851-.224,2.766-.589,6.455-1.166,12.766-1.761,19a2.074,2.074,0,0,1-.564,1.274,11.731,11.731,0,0,1-5.614,2.716Zm2.789-27.522-2.123,26.764a10.994,10.994,0,0,0,4.94-2.491,1.487,1.487,0,0,0,.364-.88c.595-6.236,1.172-12.547,1.761-19,.083-.911.151-1.808.223-2.757q.039-.512.079-1.033Zm6.419,20.892-.792-.186,1.244-13.625,7.1.786-1.813,9.869h-.252c-.292,0-.58.005-.864.01-.651.011-1.266.021-1.894-.022-1.089-.075-1.635.288-1.884,1.253a5.98,5.98,0,0,1-.5,1.2c-.083.164-.166.328-.241.494Zm1-13.144-1.092,11.953a4.518,4.518,0,0,0,.354-.877,2.108,2.108,0,0,1,2.51-1.7c.6.041,1.2.032,1.842.021.206,0,.414-.007.623-.008l1.6-8.738Zm-25.516,11.891c-.552-2.155-1.8-2.064-3.388-1.949a5.792,5.792,0,0,1-2.382-.152l-.17-.061-1.943-13.075,6.837-1.247,1.639,16.379Zm-2.442-2.6a2.788,2.788,0,0,1,2.265.86l-1.4-14.033-5.619,1.025,1.8,12.132a6,6,0,0,0,1.966.065C-1418.9,809.484-1418.57,809.46-1418.239,809.46Z" transform="translate(1427.978 -789.435)"/>
              </g>
            </g>
          </g>
        </g>
      </g>
      <g id="Group_582" data-name="Group 582" transform="translate(-1425.548 813.208)">
        <g id="Group_566" data-name="Group 566" transform="translate(7.042 28.301)">
          <rect id="Rectangle_51" data-name="Rectangle 51" width="9.264" height="0.968" rx="0.484" fill="#1a1818"/>
        </g>
        <g id="Group_567" data-name="Group 567" transform="translate(6.572 26.414)">
          <rect id="Rectangle_52" data-name="Rectangle 52" width="9.264" height="0.968" rx="0.484" fill="#1a1818"/>
        </g>
        <g id="Group_568" data-name="Group 568" transform="translate(6.103 24.528)">
          <rect id="Rectangle_53" data-name="Rectangle 53" width="9.264" height="0.968" rx="0.484" fill="#1a1818"/>
        </g>
        <g id="Group_569" data-name="Group 569" transform="translate(5.633 22.641)">
          <rect id="Rectangle_54" data-name="Rectangle 54" width="9.264" height="0.968" rx="0.484" fill="#1a1818"/>
        </g>
        <g id="Group_570" data-name="Group 570" transform="translate(5.164 20.754)">
          <rect id="Rectangle_55" data-name="Rectangle 55" width="9.264" height="0.968" rx="0.484" fill="#1a1818"/>
        </g>
        <g id="Group_571" data-name="Group 571" transform="translate(4.695 18.867)">
          <rect id="Rectangle_56" data-name="Rectangle 56" width="9.264" height="0.968" rx="0.484" fill="#1a1818"/>
        </g>
        <g id="Group_572" data-name="Group 572" transform="translate(4.225 16.981)">
          <rect id="Rectangle_57" data-name="Rectangle 57" width="9.264" height="0.968" rx="0.484" fill="#1a1818"/>
        </g>
        <g id="Group_573" data-name="Group 573" transform="translate(3.756 15.094)">
          <rect id="Rectangle_58" data-name="Rectangle 58" width="9.264" height="0.968" rx="0.484" fill="#1a1818"/>
        </g>
        <g id="Group_574" data-name="Group 574" transform="translate(3.286 13.207)">
          <rect id="Rectangle_59" data-name="Rectangle 59" width="9.264" height="0.968" rx="0.484" fill="#1a1818"/>
        </g>
        <g id="Group_575" data-name="Group 575" transform="translate(2.817 11.32)">
          <rect id="Rectangle_60" data-name="Rectangle 60" width="9.264" height="0.968" rx="0.484" fill="#1a1818"/>
        </g>
        <g id="Group_576" data-name="Group 576" transform="translate(2.347 9.434)">
          <rect id="Rectangle_61" data-name="Rectangle 61" width="9.264" height="0.968" rx="0.484" fill="#1a1818"/>
        </g>
        <g id="Group_577" data-name="Group 577" transform="translate(1.878 7.547)">
          <rect id="Rectangle_62" data-name="Rectangle 62" width="9.264" height="0.968" rx="0.484" fill="#1a1818"/>
        </g>
        <g id="Group_578" data-name="Group 578" transform="translate(1.408 5.66)">
          <rect id="Rectangle_63" data-name="Rectangle 63" width="9.264" height="0.968" rx="0.484" fill="#1a1818"/>
        </g>
        <g id="Group_579" data-name="Group 579" transform="translate(0.939 3.773)">
          <rect id="Rectangle_64" data-name="Rectangle 64" width="9.264" height="0.968" rx="0.484" fill="#1a1818"/>
        </g>
        <g id="Group_580" data-name="Group 580" transform="translate(0.469 1.887)">
          <rect id="Rectangle_65" data-name="Rectangle 65" width="9.264" height="0.968" rx="0.484" fill="#1a1818"/>
        </g>
        <g id="Group_581" data-name="Group 581">
          <rect id="Rectangle_66" data-name="Rectangle 66" width="9.264" height="0.968" rx="0.484" fill="#1a1818"/>
        </g>
      </g>
    </g>
  </g>
</svg>
