<svg xmlns="http://www.w3.org/2000/svg" xmlns:xlink="http://www.w3.org/1999/xlink" width="73" height="76" viewBox="0 0 73 76">
  <defs>
    <clipPath id="clip-Shakes">
      <rect width="73" height="76"/>
    </clipPath>
  </defs>
  <g id="Shakes" clip-path="url(#clip-Shakes)">
    <g id="Group_628" data-name="Group 628" transform="translate(1302.535 -660.223)">
      <g id="seS2Ct" transform="translate(-1286.535 666.491)">
        <g id="Group_596" data-name="Group 596">
          <g id="Group_589" data-name="Group 589">
            <g id="Group_586" data-name="Group 586" transform="translate(0.695 0.695)">
              <g id="Group_585" data-name="Group 585">
                <path id="Path_196" data-name="Path 196" d="M-1275.973,730.914a7.478,7.478,0,0,1-.611-1.559q-2.4-15.664-4.756-31.335c-.079-.517-.213-1.025-.32-1.532-3.355-.59-3.25-.591-3.293-4.614-.028-2.577,1.87-1.595,3.173-1.95a15.888,15.888,0,0,1,8.751-12.57c5.041-2.679,10.225-2.682,15.629-.315.532-2.312,1-4.542,1.571-6.747.234-.907,0-2.515,1.565-2.172,1.6.35.656,1.741.5,2.639-.369,2.055-.969,4.069-1.327,6.125a2.328,2.328,0,0,0,.513,1.859c4.029,3.5,5.473,5.914,6.431,11.1,3.266.641,3.181.641,3.155,4.735-.016,2.615-2.03,1.384-3.3,1.9-.527,4.3-1.067,8.644-1.592,12.994-.778,6.442-1.539,12.886-2.33,19.326a20.079,20.079,0,0,1-.487,2.116Zm-3.371-34.526a1.728,1.728,0,0,0-.043.379c1.554,10.283,3.13,20.562,4.642,30.852.166,1.131.771,1.146,1.614,1.143,5.29-.015,10.579-.008,15.869-.008h2.868l3.923-32.367Zm1.724-6.409c1.142-5.492,2.747-3.992,2.412-.009h24.793a13.091,13.091,0,0,0-6.834-10.331,14.494,14.494,0,0,0-16.016.348,12.861,12.861,0,0,0-6.247,9.993Zm30.369,2.325h-35.392v1.742h35.392Z" transform="translate(1284.953 -668.073)"/>
              </g>
            </g>
            <g id="Group_588" data-name="Group 588">
              <g id="Group_587" data-name="Group 587">
                <path id="Path_197" data-name="Path 197" d="M-1253.037,730.723h-24.291l-.175-.436c-.059-.145-.13-.294-.2-.452a4.554,4.554,0,0,1-.449-1.261c-1.13-7.374-2.265-14.874-3.362-22.127q-.7-4.6-1.394-9.209c-.05-.328-.124-.654-.2-1l-.008-.033c-1.456-.261-2.3-.463-2.824-1.148-.553-.719-.563-1.717-.583-3.706l0-.356a2.642,2.642,0,0,1,.621-1.98,2.731,2.731,0,0,1,2.1-.581c.184,0,.363,0,.529-.006a16.5,16.5,0,0,1,9.039-12.574,17.691,17.691,0,0,1,15.461-.661l.267-1.184c.37-1.646.719-3.2,1.125-4.777a5.059,5.059,0,0,0,.091-.565,2.538,2.538,0,0,1,.817-1.9,1.808,1.808,0,0,1,1.48-.215,1.81,1.81,0,0,1,1.263.824,2.52,2.52,0,0,1-.073,2.067,4.441,4.441,0,0,0-.16.551c-.183,1.023-.425,2.044-.659,3.031-.24,1.012-.488,2.059-.667,3.09a1.735,1.735,0,0,0,.284,1.216c4.066,3.533,5.593,6.067,6.57,11.032,1.425.285,2.248.5,2.754,1.217.524.739.517,1.766.5,3.811l0,.3a2.567,2.567,0,0,1-.635,1.91,2.642,2.642,0,0,1-2.048.538,6.311,6.311,0,0,0-.677.01q-.211,1.724-.425,3.457c-.37,3.007-.742,6.032-1.108,9.057q-.432,3.58-.86,7.161c-.478,3.988-.971,8.111-1.469,12.166a11.3,11.3,0,0,1-.334,1.542c-.058.216-.115.431-.166.648Zm-23.371-1.391h22.279l.041-.152a10.1,10.1,0,0,0,.3-1.353c.5-4.052.991-8.175,1.469-12.161q.429-3.582.861-7.163c.365-3.027.738-6.053,1.108-9.06q.243-1.973.484-3.935l.05-.405.379-.154a3.965,3.965,0,0,1,1.6-.193c.434.008.883.018,1.049-.144.078-.076.21-.3.214-.923l0-.3c.011-1.636.018-2.624-.247-3-.237-.334-1.032-.49-2.349-.749l-.464-.091-.086-.465c-.917-4.964-2.25-7.264-6.2-10.7a2.993,2.993,0,0,1-.742-2.5c.186-1.072.44-2.14.684-3.173.229-.968.467-1.97.644-2.956a5.563,5.563,0,0,1,.208-.742c.093-.28.265-.8.185-.942-.017-.03-.113-.1-.353-.153a.6.6,0,0,0-.38-.008c-.132.093-.2.641-.239.935a6,6,0,0,1-.125.738c-.4,1.556-.747,3.1-1.115,4.735q-.222.988-.452,1.995l-.188.818-.769-.337c-5.337-2.339-10.252-2.243-15.023.292a15.223,15.223,0,0,0-8.387,12.046l-.06.459-.447.122a5,5,0,0,1-1.337.116c-.457,0-.929-.007-1.108.172a1.507,1.507,0,0,0-.215.983l0,.357c.015,1.572.025,2.521.294,2.871.251.326,1.114.477,2.42.707l.462.081.1.46c.033.157.069.314.105.472.081.354.164.721.222,1.1q.7,4.605,1.394,9.21c1.1,7.252,2.231,14.751,3.362,22.123a3.444,3.444,0,0,0,.331.875Zm2.3-.76c-.813,0-1.965-.059-2.212-1.738-1.118-7.605-2.29-15.334-3.424-22.807q-.61-4.021-1.219-8.042a1.3,1.3,0,0,1,.021-.442c.006-.037.014-.077.019-.124l.074-.612h30.275l-4.091,33.758h-7.43c-3.908,0-7.948,0-11.921.009Zm-5.416-32.375q.576,3.811,1.155,7.621c1.134,7.475,2.307,15.205,3.425,22.814.08.542.1.555.924.549,3.975-.011,8.016-.01,11.925-.009h6.2l3.754-30.976Zm32.081-2.342h-36.783v-3.132h36.783Zm-35.392-1.391h34v-.35h-34Zm4.893-2.676h-3.226l.076-.764a13.565,13.565,0,0,1,6.565-10.511,15.268,15.268,0,0,1,16.739-.363,13.809,13.809,0,0,1,7.176,10.855l.087.773h-26.327l.063-.754a7.309,7.309,0,0,0-.143-2.583,9.5,9.5,0,0,0-.895,2.792Zm-1.67-1.391h.545c.6-2.577,1.351-3.711,2.349-3.569,1.244.182,1.389,2.263,1.356,3.559h23.262a12.279,12.279,0,0,0-6.386-9.035,13.786,13.786,0,0,0-15.293.333A12.213,12.213,0,0,0-1279.61,688.4Z" transform="translate(1286.535 -666.491)"/>
              </g>
            </g>
          </g>
          <g id="Group_591" data-name="Group 591" transform="translate(6.259 29.01)">
            <g id="Group_590" data-name="Group 590">
              <path id="Path_198" data-name="Path 198" d="M-1272.251,732.485h28.874l-3.923,32.367h-2.869c-5.29,0-10.579-.008-15.869.008-.844,0-1.448-.013-1.614-1.143-1.512-10.29-3.089-20.569-4.643-30.852A1.729,1.729,0,0,1-1272.251,732.485Z" transform="translate(1272.297 -732.485)" fill="#fff"/>
            </g>
          </g>
          <g id="Group_593" data-name="Group 593" transform="translate(6.137 10.018)">
            <g id="Group_592" data-name="Group 592">
              <path id="Path_199" data-name="Path 199" d="M-1272.575,701.864a12.86,12.86,0,0,1,6.246-9.993,14.494,14.494,0,0,1,16.016-.348,13.091,13.091,0,0,1,6.834,10.331C-1251.856,701.855-1271.85,701.864-1272.575,701.864Z" transform="translate(1272.575 -689.28)" fill="#fff"/>
            </g>
          </g>
          <g id="Group_595" data-name="Group 595" transform="translate(3.006 24.927)">
            <g id="Group_594" data-name="Group 594">
              <path id="Path_200" data-name="Path 200" d="M-1244.3,723.2v1.742H-1279.7V723.2Z" transform="translate(1279.696 -723.196)" fill="#fff"/>
            </g>
          </g>
        </g>
      </g>
      <g id="Group_616" data-name="Group 616" transform="translate(-1282.373 696.094)">
        <g id="Group_597" data-name="Group 597" transform="translate(5.129 30.165)">
          <rect id="Rectangle_69" data-name="Rectangle 69" width="10.336" height="0.837" rx="0.418" fill="#1a1818"/>
        </g>
        <g id="Group_598" data-name="Group 598" transform="translate(4.844 28.489)">
          <rect id="Rectangle_70" data-name="Rectangle 70" width="10.336" height="0.837" rx="0.418" fill="#1a1818"/>
        </g>
        <g id="Group_599" data-name="Group 599" transform="translate(4.559 26.813)">
          <rect id="Rectangle_71" data-name="Rectangle 71" width="10.336" height="0.837" rx="0.418" fill="#1a1818"/>
        </g>
        <g id="Group_600" data-name="Group 600" transform="translate(4.274 25.137)">
          <rect id="Rectangle_72" data-name="Rectangle 72" width="10.336" height="0.837" rx="0.418" fill="#1a1818"/>
        </g>
        <g id="Group_601" data-name="Group 601" transform="translate(3.989 23.461)">
          <rect id="Rectangle_73" data-name="Rectangle 73" width="10.336" height="0.837" rx="0.418" fill="#1a1818"/>
        </g>
        <g id="Group_602" data-name="Group 602" transform="translate(3.704 21.786)">
          <rect id="Rectangle_74" data-name="Rectangle 74" width="10.336" height="0.837" rx="0.418" fill="#1a1818"/>
        </g>
        <g id="Group_603" data-name="Group 603" transform="translate(3.419 20.11)">
          <rect id="Rectangle_75" data-name="Rectangle 75" width="10.336" height="0.837" rx="0.418" fill="#1a1818"/>
        </g>
        <g id="Group_604" data-name="Group 604" transform="translate(3.134 18.434)">
          <rect id="Rectangle_76" data-name="Rectangle 76" width="10.336" height="0.837" rx="0.418" fill="#1a1818"/>
        </g>
        <g id="Group_605" data-name="Group 605" transform="translate(2.849 16.758)">
          <rect id="Rectangle_77" data-name="Rectangle 77" width="10.336" height="0.837" rx="0.418" fill="#1a1818"/>
        </g>
        <g id="Group_606" data-name="Group 606" transform="translate(2.564 15.082)">
          <rect id="Rectangle_78" data-name="Rectangle 78" width="10.336" height="0.837" rx="0.418" fill="#1a1818"/>
        </g>
        <g id="Group_607" data-name="Group 607" transform="translate(2.279 13.407)">
          <rect id="Rectangle_79" data-name="Rectangle 79" width="10.336" height="0.837" rx="0.418" fill="#1a1818"/>
        </g>
        <g id="Group_608" data-name="Group 608" transform="translate(1.995 11.731)">
          <rect id="Rectangle_80" data-name="Rectangle 80" width="10.336" height="0.837" rx="0.418" fill="#1a1818"/>
        </g>
        <g id="Group_609" data-name="Group 609" transform="translate(1.71 10.055)">
          <rect id="Rectangle_81" data-name="Rectangle 81" width="10.336" height="0.837" rx="0.418" fill="#1a1818"/>
        </g>
        <g id="Group_610" data-name="Group 610" transform="translate(1.425 8.379)">
          <rect id="Rectangle_82" data-name="Rectangle 82" width="10.336" height="0.837" rx="0.418" fill="#1a1818"/>
        </g>
        <g id="Group_611" data-name="Group 611" transform="translate(1.14 6.703)">
          <rect id="Rectangle_83" data-name="Rectangle 83" width="10.336" height="0.837" rx="0.418" fill="#1a1818"/>
        </g>
        <g id="Group_612" data-name="Group 612" transform="translate(0.855 5.027)">
          <rect id="Rectangle_84" data-name="Rectangle 84" width="10.336" height="0.837" rx="0.418" fill="#1a1818"/>
        </g>
        <g id="Group_613" data-name="Group 613" transform="translate(0.57 3.352)">
          <rect id="Rectangle_85" data-name="Rectangle 85" width="10.336" height="0.837" rx="0.418" fill="#1a1818"/>
        </g>
        <g id="Group_614" data-name="Group 614" transform="translate(0.285 1.676)">
          <rect id="Rectangle_86" data-name="Rectangle 86" width="10.336" height="0.837" rx="0.418" fill="#1a1818"/>
        </g>
        <g id="Group_615" data-name="Group 615">
          <rect id="Rectangle_87" data-name="Rectangle 87" width="10.336" height="0.837" rx="0.418" fill="#1a1818"/>
        </g>
      </g>
      <g id="Group_624" data-name="Group 624" transform="translate(-1282.136 677.911)">
        <g id="Group_617" data-name="Group 617" transform="translate(0 9.432)">
          <rect id="Rectangle_88" data-name="Rectangle 88" width="7.774" height="0.837" rx="0.418" fill="#1a1818"/>
        </g>
        <g id="Group_618" data-name="Group 618" transform="translate(0.389 7.813)">
          <rect id="Rectangle_89" data-name="Rectangle 89" width="7.774" height="0.837" rx="0.418" fill="#1a1818"/>
        </g>
        <g id="Group_619" data-name="Group 619" transform="translate(1.1 6.156)">
          <rect id="Rectangle_90" data-name="Rectangle 90" width="7.774" height="0.837" rx="0.418" fill="#1a1818"/>
        </g>
        <g id="Group_620" data-name="Group 620" transform="translate(2.097 4.504)">
          <rect id="Rectangle_91" data-name="Rectangle 91" width="7.774" height="0.837" rx="0.418" fill="#1a1818"/>
        </g>
        <g id="Group_621" data-name="Group 621" transform="translate(3.348 2.899)">
          <rect id="Rectangle_92" data-name="Rectangle 92" width="7.774" height="0.837" rx="0.418" fill="#1a1818"/>
        </g>
        <g id="Group_622" data-name="Group 622" transform="translate(4.819 1.384)">
          <rect id="Rectangle_93" data-name="Rectangle 93" width="7.774" height="0.837" rx="0.418" fill="#1a1818"/>
        </g>
        <g id="Group_623" data-name="Group 623" transform="translate(6.476)">
          <rect id="Rectangle_94" data-name="Rectangle 94" width="7.774" height="0.837" rx="0.418" fill="#1a1818"/>
        </g>
      </g>
      <g id="Group_626" data-name="Group 626" transform="translate(-1266.033 680.755)">
        <g id="Group_625" data-name="Group 625">
          <path id="Path_201" data-name="Path 201" d="M-1239.9,698.938" transform="translate(1239.896 -698.938)" fill="#fff"/>
        </g>
      </g>
    </g>
  </g>
</svg>
