<svg xmlns="http://www.w3.org/2000/svg" xmlns:xlink="http://www.w3.org/1999/xlink" width="135" height="146" viewBox="0 0 135 146">
  <defs>
    <clipPath id="clip-Logo_capital">
      <rect width="135" height="146"/>
    </clipPath>
  </defs>
  <g id="Logo_capital" data-name="Logo capital" clip-path="url(#clip-Logo_capital)">
    <g id="Group_656" data-name="Group 656" transform="translate(222.619 -642.711)">
      <path id="Path_210" data-name="Path 210" d="M-183.472,740.271a.748.748,0,0,1,.3.312.5.5,0,0,1-.036.456l-2.027,2.879a.47.47,0,0,1-.282.234.528.528,0,0,1-.366-.1,4.583,4.583,0,0,0-1.3-.684,4.634,4.634,0,0,0-1.5-.24,4.376,4.376,0,0,0-1.811.372,4.355,4.355,0,0,0-1.427,1.02,4.712,4.712,0,0,0-.936,1.511,5.052,5.052,0,0,0-.336,1.847,5.006,5.006,0,0,0,.336,1.841,4.662,4.662,0,0,0,.936,1.5,4.392,4.392,0,0,0,1.427,1.013,4.369,4.369,0,0,0,1.811.372,4.647,4.647,0,0,0,1.512-.246,4.652,4.652,0,0,0,1.307-.69.553.553,0,0,1,.36-.108.49.49,0,0,1,.288.216l2.052,2.951a.473.473,0,0,1,.036.444.77.77,0,0,1-.3.3,9.526,9.526,0,0,1-2.429,1.17,9,9,0,0,1-2.741.414,9.108,9.108,0,0,1-2.441-.324,9.075,9.075,0,0,1-2.189-.924,9.207,9.207,0,0,1-1.853-1.433,9.3,9.3,0,0,1-1.433-1.848,8.947,8.947,0,0,1-.924-2.183,9.11,9.11,0,0,1-.324-2.441,9.109,9.109,0,0,1,.324-2.441,9.164,9.164,0,0,1,.924-2.2,9.307,9.307,0,0,1,1.433-1.866,8.947,8.947,0,0,1,1.853-1.433,9.394,9.394,0,0,1,2.189-.924,8.951,8.951,0,0,1,2.441-.33,8.994,8.994,0,0,1,2.717.4A9.343,9.343,0,0,1-183.472,740.271Z" transform="translate(-9.971 0)" fill="#fff"/>
      <path id="Path_211" data-name="Path 211" d="M-147.73,739.89a.36.36,0,0,1,.078-.156.868.868,0,0,1,.162-.156.864.864,0,0,1,.2-.114.569.569,0,0,1,.2-.042h3.071a.509.509,0,0,1,.348.126,1.536,1.536,0,0,1,.216.222l.3.684,6.3,16.242a.353.353,0,0,1-.036.39.583.583,0,0,1-.456.15h-3.443a.754.754,0,0,1-.426-.1.659.659,0,0,1-.234-.342q-.24-.612-.468-1.217t-.456-1.218h-6.369q-.228.612-.462,1.218t-.462,1.217a.6.6,0,0,1-.612.444h-3.539a.584.584,0,0,1-.378-.12.283.283,0,0,1-.054-.359Zm2.183,5.134q-.228.612-.462,1.319t-.462,1.427q-.228.72-.462,1.421t-.462,1.314h3.683Z" transform="translate(-37.304 -0.447)" fill="#fff"/>
      <path id="Path_212" data-name="Path 212" d="M-101.526,739.974a.587.587,0,0,1,.132-.4.5.5,0,0,1,.4-.15h7.665a5.218,5.218,0,0,1,1.56.228,5.328,5.328,0,0,1,1.344.629,5.5,5.5,0,0,1,1.1.96,6.172,6.172,0,0,1,.834,1.205,6.127,6.127,0,0,1,.522,1.362,5.9,5.9,0,0,1,.18,1.446,5.935,5.935,0,0,1-.39,2.111,5.794,5.794,0,0,1-1.11,1.835,5.655,5.655,0,0,1-1.727,1.3,5.09,5.09,0,0,1-2.231.51h-3.635v5.71q0,.516-.552.516H-101a.565.565,0,0,1-.384-.126.494.494,0,0,1-.144-.39Zm9.033,5.254a2.168,2.168,0,0,0-.126-.72,2.011,2.011,0,0,0-.366-.642,1.946,1.946,0,0,0-.582-.462,1.633,1.633,0,0,0-.773-.18h-2.543v4.007h2.543a1.716,1.716,0,0,0,.78-.174,1.807,1.807,0,0,0,.582-.45,1.994,1.994,0,0,0,.36-.635A2.239,2.239,0,0,0-92.493,745.228Z" transform="translate(-70.469 -0.447)" fill="#fff"/>
      <path id="Path_213" data-name="Path 213" d="M-57.4,739.95a.557.557,0,0,1,.132-.372.489.489,0,0,1,.4-.156h3.527a.677.677,0,0,1,.384.144.448.448,0,0,1,.2.384v16.758q0,.527-.588.528h-3.527a.466.466,0,0,1-.528-.528Z" transform="translate(-98.21 -0.447)" fill="#fff"/>
      <path id="Path_214" data-name="Path 214" d="M-37.113,739.949a.485.485,0,0,1,.162-.383.586.586,0,0,1,.4-.144h12.907a.605.605,0,0,1,.384.131.537.537,0,0,1,.192.4v2.978a.676.676,0,0,1-.15.413.5.5,0,0,1-.426.2H-27.78v13.135a.572.572,0,0,1-.156.39.521.521,0,0,1-.407.174H-31.86a.564.564,0,0,1-.383-.162.52.52,0,0,1-.179-.4V743.536h-4.127a.558.558,0,0,1-.4-.155.6.6,0,0,1-.162-.455Z" transform="translate(-110.964 -0.447)" fill="#fff"/>
      <path id="Path_215" data-name="Path 215" d="M4.839,739.89a.356.356,0,0,1,.078-.156.854.854,0,0,1,.162-.156.872.872,0,0,1,.2-.114.569.569,0,0,1,.2-.042H8.558a.508.508,0,0,1,.348.126,1.517,1.517,0,0,1,.216.222l.3.684,6.3,16.242a.354.354,0,0,1-.036.39.583.583,0,0,1-.456.15H11.785a.755.755,0,0,1-.426-.1.661.661,0,0,1-.234-.342q-.24-.612-.468-1.217t-.456-1.218H3.832q-.228.612-.462,1.218t-.462,1.217a.6.6,0,0,1-.612.444H-1.243a.585.585,0,0,1-.378-.12.283.283,0,0,1-.054-.359Zm2.183,5.134q-.228.612-.462,1.319T6.1,747.771q-.228.72-.462,1.421t-.462,1.314H8.858Z" transform="translate(-133.219 -0.447)" fill="#fff"/>
      <path id="Path_216" data-name="Path 216" d="M50.527,739.918a.529.529,0,0,1,.144-.372.512.512,0,0,1,.4-.156h3.551a.559.559,0,0,1,.372.144.518.518,0,0,1,.18.384v13.051h6.6a.529.529,0,0,1,.372.144.512.512,0,0,1,.156.4v3.155a.572.572,0,0,1-.138.372.51.51,0,0,1-.39.18H51.055a.467.467,0,0,1-.528-.528Z" transform="translate(-166.06 -0.427)" fill="#fff"/>
      <path id="Path_217" data-name="Path 217" d="M-213.619,795.974a.57.57,0,0,1,.138-.4.5.5,0,0,1,.39-.15h7.965a4.994,4.994,0,0,1,1.991.4,5.182,5.182,0,0,1,1.637,1.1,5.252,5.252,0,0,1,1.11,1.643,5.032,5.032,0,0,1,.408,2.021,4.872,4.872,0,0,1-.281,1.674,4.559,4.559,0,0,1-.8,1.385,5.854,5.854,0,0,1,1.368,1.883,5.462,5.462,0,0,1,.5,2.315,5.189,5.189,0,0,1-.42,2.069,5.648,5.648,0,0,1-1.133,1.715,5.393,5.393,0,0,1-1.668,1.169,4.811,4.811,0,0,1-2.009.432h-8.673a.563.563,0,0,1-.384-.126.492.492,0,0,1-.144-.39Zm9.032,4.726a1.712,1.712,0,0,0-.132-.672,1.735,1.735,0,0,0-.373-.552,1.741,1.741,0,0,0-.577-.378,1.923,1.923,0,0,0-.734-.138h-2.574v3.479h2.538a2.157,2.157,0,0,0,.752-.126,1.631,1.631,0,0,0,.584-.359,1.715,1.715,0,0,0,.379-.552A1.741,1.741,0,0,0-204.587,800.7Zm.636,6.969a2,2,0,0,0-.139-.72,2.124,2.124,0,0,0-.385-.642,2.028,2.028,0,0,0-.589-.462,1.567,1.567,0,0,0-.739-.18h-3.175v4.006h3.175a1.62,1.62,0,0,0,.733-.168,1.951,1.951,0,0,0,.59-.45,2.058,2.058,0,0,0,.391-.642A2.056,2.056,0,0,0-203.951,807.669Z" transform="translate(0 -35.652)" fill="#fff"/>
      <path id="Path_218" data-name="Path 218" d="M-163.559,806.131a4.078,4.078,0,0,0,.246,1.506,2.847,2.847,0,0,0,.649,1.009,2.456,2.456,0,0,0,.938.57,3.45,3.45,0,0,0,1.112.181,3.072,3.072,0,0,0,1.136-.211,2.642,2.642,0,0,0,.938-.624,2.981,2.981,0,0,0,.637-1.027,3.909,3.909,0,0,0,.235-1.4V795.95a.517.517,0,0,1,.15-.372.53.53,0,0,1,.4-.156h3.5a.571.571,0,0,1,.432.162.517.517,0,0,1,.156.366v10.112a8.885,8.885,0,0,1-.618,3.527,6.059,6.059,0,0,1-1.661,2.3,6.37,6.37,0,0,1-2.417,1.247,10.835,10.835,0,0,1-2.885.378,10.6,10.6,0,0,1-2.891-.39,6.4,6.4,0,0,1-2.423-1.272,6.176,6.176,0,0,1-1.661-2.3,8.738,8.738,0,0,1-.618-3.485V795.95a.549.549,0,0,1,.138-.366.429.429,0,0,1,.341-.162h3.589a.633.633,0,0,1,.377.15.459.459,0,0,1,.2.378Z" transform="translate(-28.553 -35.652)" fill="#fff"/>
      <path id="Path_219" data-name="Path 219" d="M-117.9,795.974a.587.587,0,0,1,.132-.4.5.5,0,0,1,.4-.15h7.749a5.823,5.823,0,0,1,2.315.462,6.025,6.025,0,0,1,1.883,1.254,5.843,5.843,0,0,1,1.266,1.853,5.61,5.61,0,0,1,.462,2.261,5.36,5.36,0,0,1-.222,1.554,5.781,5.781,0,0,1-.618,1.379,5.839,5.839,0,0,1-.941,1.163,6.163,6.163,0,0,1-1.194.894l3.083,5.805q.084.168.216.4a.824.824,0,0,1,.132.4.357.357,0,0,1-.126.294.528.528,0,0,1-.342.1h-4.115a.6.6,0,0,1-.366-.12.543.543,0,0,1-.21-.324l-2.915-5.482h-1.943v5.41q0,.516-.552.516h-3.563a.565.565,0,0,1-.384-.126.493.493,0,0,1-.144-.39Zm9.392,5.326a2.07,2.07,0,0,0-.132-.72,2.338,2.338,0,0,0-.372-.659,2.182,2.182,0,0,0-.576-.5,1.96,1.96,0,0,0-.743-.264l-.63-.042q-.294-.018-.641-.018h-1.655v4.4h2.207c.144,0,.272,0,.384-.012s.236-.02.372-.036a1.884,1.884,0,0,0,.756-.246,1.965,1.965,0,0,0,.564-.492,2.158,2.158,0,0,0,.348-.66A2.4,2.4,0,0,0-108.511,801.3Z" transform="translate(-60.173 -35.652)" fill="#fff"/>
      <path id="Path_220" data-name="Path 220" d="M-62.353,800a5.217,5.217,0,0,0-1.307-.672,4.538,4.538,0,0,0-1.487-.24,4.342,4.342,0,0,0-1.824.378,4.36,4.36,0,0,0-1.421,1.026,4.76,4.76,0,0,0-.93,1.517,5.1,5.1,0,0,0-.336,1.853,5.053,5.053,0,0,0,.336,1.847,4.7,4.7,0,0,0,.93,1.506,4.326,4.326,0,0,0,1.421,1.013,4.4,4.4,0,0,0,1.824.372,5.782,5.782,0,0,0,.834-.06q.413-.06.882-.156v-3.143a.55.55,0,0,1,.132-.378.5.5,0,0,1,.4-.15h3.263a.675.675,0,0,1,.384.144.448.448,0,0,1,.2.384v5.806a.6.6,0,0,1-.348.528,6.587,6.587,0,0,1-1.248.659,10.223,10.223,0,0,1-1.427.456,12.816,12.816,0,0,1-1.506.27,12.686,12.686,0,0,1-1.481.09,9.109,9.109,0,0,1-2.441-.324,9.078,9.078,0,0,1-2.189-.924,9.2,9.2,0,0,1-1.853-1.433,9.289,9.289,0,0,1-1.433-1.848,8.946,8.946,0,0,1-.924-2.183,9.1,9.1,0,0,1-.324-2.441,9.1,9.1,0,0,1,.324-2.441,9.163,9.163,0,0,1,.924-2.2,9.3,9.3,0,0,1,1.433-1.866,8.939,8.939,0,0,1,1.853-1.433,9.4,9.4,0,0,1,2.189-.924,8.955,8.955,0,0,1,2.441-.33,9,9,0,0,1,2.717.4,9.332,9.332,0,0,1,2.4,1.157.819.819,0,0,1,.312.318.428.428,0,0,1-.048.45l-1.943,2.807a.851.851,0,0,1-.312.258A.471.471,0,0,1-62.353,800Z" transform="translate(-87.631 -35.205)" fill="#fff"/>
      <path id="Path_221" data-name="Path 221" d="M-24,795.974a.572.572,0,0,1,.137-.4.5.5,0,0,1,.389-.15h11.9a.527.527,0,0,1,.408.156.592.592,0,0,1,.144.419v2.966a.626.626,0,0,1-.144.389.5.5,0,0,1-.42.185h-7.773v2.975h6a.628.628,0,0,1,.378.108.412.412,0,0,1,.15.359v2.591a.5.5,0,0,1-.132.324.476.476,0,0,1-.384.156h-6.01v3.071h8.061a.482.482,0,0,1,.54.55v3.014a.3.3,0,0,1-.1.215q-.048.335-.492.335H-23.47a.561.561,0,0,1-.383-.126.493.493,0,0,1-.144-.39Z" transform="translate(-119.209 -35.652)" fill="#fff"/>
      <path id="Path_222" data-name="Path 222" d="M19.677,795.974a.587.587,0,0,1,.132-.4.5.5,0,0,1,.4-.15h7.749a5.823,5.823,0,0,1,2.315.462,6.031,6.031,0,0,1,1.883,1.254,5.848,5.848,0,0,1,1.266,1.853,5.61,5.61,0,0,1,.462,2.261,5.36,5.36,0,0,1-.222,1.554,5.822,5.822,0,0,1-1.559,2.542,6.152,6.152,0,0,1-1.194.894l3.083,5.805q.084.168.216.4a.824.824,0,0,1,.132.4.357.357,0,0,1-.126.294.53.53,0,0,1-.342.1H29.753a.6.6,0,0,1-.366-.12.543.543,0,0,1-.21-.324l-2.915-5.482H24.319v5.41q0,.516-.552.516H20.2a.565.565,0,0,1-.384-.126.493.493,0,0,1-.144-.39Zm9.392,5.326a2.07,2.07,0,0,0-.132-.72,2.338,2.338,0,0,0-.372-.659,2.186,2.186,0,0,0-.576-.5,1.965,1.965,0,0,0-.744-.264l-.63-.042q-.294-.018-.641-.018H24.319v4.4h2.207q.216,0,.384-.012t.372-.036a1.884,1.884,0,0,0,.756-.246,1.965,1.965,0,0,0,.564-.492,2.167,2.167,0,0,0,.348-.66A2.407,2.407,0,0,0,29.069,801.3Z" transform="translate(-146.665 -35.652)" fill="#fff"/>
      <path id="Path_223" data-name="Path 223" d="M65.56,806.828q.2.168.522.45a7.006,7.006,0,0,0,.726.558,6.094,6.094,0,0,0,1.212.635,3.506,3.506,0,0,0,1.259.228,3.275,3.275,0,0,0,1.026-.138,1.728,1.728,0,0,0,.654-.366,1.3,1.3,0,0,0,.342-.527,1.968,1.968,0,0,0,.1-.635.936.936,0,0,0-.282-.665,2.934,2.934,0,0,0-.69-.521,5.883,5.883,0,0,0-.852-.39q-.444-.162-.768-.27a17.567,17.567,0,0,1-2.519-1.085,7.768,7.768,0,0,1-1.8-1.294,4.849,4.849,0,0,1-1.08-1.57,4.9,4.9,0,0,1-.359-1.912,4.517,4.517,0,0,1,.45-2.026,4.443,4.443,0,0,1,1.284-1.558,6.1,6.1,0,0,1,2.009-1,9.1,9.1,0,0,1,2.627-.354,8.736,8.736,0,0,1,2.093.246,7.947,7.947,0,0,1,1.973.786q.408.24.774.5t.642.5a3.029,3.029,0,0,1,.438.456.666.666,0,0,1,.162.372.556.556,0,0,1-.078.288,1.813,1.813,0,0,1-.234.3l-1.835,1.955a.588.588,0,0,1-.408.2.52.52,0,0,1-.306-.1,3.8,3.8,0,0,1-.306-.24l-.108-.1q-.24-.2-.534-.42a4.764,4.764,0,0,0-.63-.39,4.3,4.3,0,0,0-.708-.288,2.57,2.57,0,0,0-.756-.114,3.982,3.982,0,0,0-.744.066,2.074,2.074,0,0,0-.612.21,1.159,1.159,0,0,0-.42.378,1.1,1.1,0,0,0,.012,1.151,1.648,1.648,0,0,0,.5.456,4.643,4.643,0,0,0,.834.4q.5.186,1.157.4,1.271.42,2.345.882a7.908,7.908,0,0,1,1.854,1.092,4.509,4.509,0,0,1,1.217,1.5,4.71,4.71,0,0,1,.438,2.123,5.249,5.249,0,0,1-.54,2.393,5.465,5.465,0,0,1-1.482,1.83,6.918,6.918,0,0,1-2.213,1.17,8.786,8.786,0,0,1-2.735.414,7.764,7.764,0,0,1-2.711-.493A10.434,10.434,0,0,1,64.024,811a6.391,6.391,0,0,1-.81-.685q-.33-.337-.522-.541l-.036-.036a.064.064,0,0,0-.024-.03.1.1,0,0,1-.024-.018.066.066,0,0,0-.024-.03.087.087,0,0,1-.024-.018.84.84,0,0,1-.276-.481.682.682,0,0,1,.276-.457l2.075-1.979a.779.779,0,0,1,.408-.18.444.444,0,0,1,.228.072A2.215,2.215,0,0,1,65.56,806.828Z" transform="translate(-173.452 -35.003)" fill="#fff"/>
    </g>
    <g id="Group_744" data-name="Group 744" transform="translate(-527.835 -168.491)">
      <g id="Group_665" data-name="Group 665" transform="translate(557.835 175.491)">
        <g id="Group_659" data-name="Group 659" transform="translate(0 0)">
          <g id="Group_657" data-name="Group 657" transform="translate(1.252 1.252)">
            <circle id="Ellipse_11" data-name="Ellipse 11" cx="36.152" cy="36.152" r="36.152" fill="#fff"/>
          </g>
          <g id="Group_658" data-name="Group 658">
            <path id="Path_224" data-name="Path 224" d="M595.239,250.3a37.4,37.4,0,1,1,37.4-37.4A37.447,37.447,0,0,1,595.239,250.3Zm0-72.3a34.9,34.9,0,1,0,34.9,34.9A34.939,34.939,0,0,0,595.239,178Z" transform="translate(-557.835 -175.491)" fill="#1a1818"/>
          </g>
        </g>
        <g id="Group_664" data-name="Group 664" transform="translate(0.019 0.019)">
          <g id="Group_661" data-name="Group 661" transform="translate(3.757 3.757)">
            <g id="Group_660" data-name="Group 660">
              <circle id="Ellipse_12" data-name="Ellipse 12" cx="33.628" cy="33.628" r="33.628" fill="#fff"/>
            </g>
          </g>
          <g id="Group_663" data-name="Group 663">
            <g id="Group_662" data-name="Group 662">
              <path id="Path_225" data-name="Path 225" d="M594.868,250.354q-.464-.006-.926-.022l.277-7.509q.367.013.737.018Zm.926,0-.1-7.513q.372,0,.741-.019l.277,7.509Q596.255,250.347,595.794,250.354Zm-2.77-.066q-.467-.028-.93-.068l.653-7.485q.363.032.729.053Zm4.612,0-.462-7.5q.371-.023.74-.054l.643,7.486Q598.1,250.257,597.637,250.286Zm-6.456-.155q-.46-.051-.917-.112l1.007-7.446q.366.049.735.091Zm8.3,0-.837-7.467q.372-.041.74-.091l1.009,7.446Q599.938,250.076,599.481,250.127Zm-10.131-.244q-.457-.074-.91-.158l1.371-7.387q.363.067.729.126Zm11.956,0-1.191-7.419q.363-.058.722-.126l1.384,7.385Q601.766,249.805,601.306,249.879Zm-13.773-.335q-.457-.1-.91-.2l1.75-7.308q.355.085.714.161Zm15.59,0-1.554-7.352q.359-.076.714-.161l1.75,7.308Q603.579,249.443,603.122,249.54Zm-17.39-.424q-.452-.119-.9-.25l2.113-7.211q.35.1.7.2Zm19.2-.008L603,241.847q.359-.1.716-.2l2.1,7.214Q605.374,248.99,604.929,249.108Zm-20.978-.511q-.444-.142-.883-.294l2.469-7.1q.348.121.7.233Zm22.75-.007-2.283-7.158q.351-.112.7-.233l2.465,7.1Q607.144,248.449,606.7,248.59Zm-24.5-.6q-.435-.163-.864-.336l2.811-6.968q.344.139.691.269Zm26.25-.006-2.636-7.036q.347-.13.688-.268l2.81,6.968Q608.883,247.821,608.448,247.983Zm-27.97-.688q-.425-.183-.844-.378l3.151-6.821q.338.156.678.3Zm29.688-.006-2.992-6.893q.339-.147.673-.3l3.159,6.818Q610.589,247.107,610.167,247.29Zm1.665-.771-3.312-6.745q.327-.16.649-.33l3.493,6.653Q612.249,246.313,611.831,246.519Zm-33.036,0q-.415-.206-.824-.419l3.488-6.655q.328.172.661.336Zm34.679-.859-3.658-6.563q.324-.181.643-.368l3.813,6.474Q613.876,245.434,613.473,245.658Zm-36.321,0q-.4-.225-.8-.459l3.812-6.475q.32.188.645.37Zm37.911-.934-3.977-6.375q.314-.2.623-.4l4.13,6.277Q615.454,244.477,615.063,244.721Zm-39.507-.007q-.392-.244-.776-.5l4.13-6.277q.312.2.627.4Zm41.047-1.006-4.282-6.174q.3-.21.6-.426l4.437,6.063Q616.984,243.444,616.6,243.708Zm-42.59-.01q-.38-.264-.753-.537l4.434-6.066q.3.218.6.43Zm44.082-1.08-4.584-5.953q.293-.226.582-.46l4.725,5.843Q618.46,242.336,618.095,242.617ZM572.52,242.6q-.367-.283-.728-.575l4.733-5.836q.287.232.578.457Zm47.01-1.149-4.871-5.721q.282-.241.559-.488l5.006,5.6Q619.881,241.157,619.53,241.456Zm-48.447-.015q-.353-.3-.7-.609l5.012-5.6q.275.246.556.486Zm49.82-1.213-5.139-5.481q.268-.251.529-.509l5.28,5.346Q621.242,239.91,620.9,240.228Zm-51.2-.022q-.336-.316-.664-.64l5.28-5.346q.264.261.534.515Zm52.52-1.281-5.411-5.213q.258-.267.508-.54l5.535,5.082Q622.544,238.593,622.224,238.925Zm-53.833-.017q-.322-.334-.634-.674l5.54-5.076q.249.272.505.537Zm55.083-1.343-5.66-4.942q.244-.28.481-.565l5.777,4.8Q623.777,237.218,623.473,237.565Zm-56.331-.018q-.306-.35-.6-.707l5.787-4.793q.234.283.475.559Zm57.513-1.4-5.9-4.659q.23-.291.453-.588l6.005,4.515Q624.941,235.782,624.655,236.144Zm-58.693-.017q-.287-.363-.565-.733l6.011-4.509q.221.3.45.584Zm59.807-1.465-6.123-4.355q.216-.3.426-.613l6.221,4.214Q626.036,234.287,625.769,234.661Zm-60.917-.012q-.266-.374-.523-.754l6.219-4.216c.139.2.28.409.424.61Zm61.952-1.518-6.328-4.053q.2-.312.393-.63l6.423,3.9Q627.053,232.743,626.8,233.132Zm-62.985-.011q-.25-.389-.489-.785l6.426-3.893q.191.314.389.624Zm63.944-1.571-6.518-3.739q.183-.319.359-.644l6.611,3.57Q628,231.147,627.764,231.55Zm-64.9-.008q-.228-.4-.447-.8l6.606-3.579q.177.326.36.647Zm-.877-1.62q-.21-.412-.409-.828l6.777-3.245q.159.332.326.659Zm66.661,0-6.7-3.409q.168-.33.327-.663l6.779,3.241Q628.857,229.506,628.647,229.919Zm-67.459-1.664q-.189-.421-.367-.847l6.931-2.9q.142.339.293.675Zm68.258,0-6.854-3.08q.151-.336.294-.678l6.93,2.9Q629.635,227.827,629.445,228.25Zm-68.97-1.694q-.168-.429-.325-.864l7.064-2.561q.126.349.261.693Zm69.688-.022-7-2.724q.134-.345.26-.695l7.068,2.55Q630.331,226.1,630.164,226.534Zm-70.318-1.719q-.146-.437-.282-.88l7.184-2.2q.109.355.225.7Zm70.948-.028-7.131-2.369q.117-.353.227-.71l7.185,2.2Q630.939,224.349,630.794,224.787Zm-71.489-1.74q-.125-.448-.239-.9l7.287-1.83q.089.355.188.707Zm72.029-.027L624.1,221q.1-.353.188-.708l7.287,1.83Q631.459,222.573,631.333,223.021Zm-72.482-1.767q-.1-.453-.194-.91l7.37-1.468q.071.36.152.717Zm72.934-.029-7.329-1.658q.081-.358.152-.718l7.37,1.468Q631.888,220.772,631.786,221.225Zm-73.3-1.786q-.08-.457-.148-.917l7.432-1.1q.054.364.117.725Zm73.66-.033-7.4-1.283q.064-.364.118-.731l7.432,1.1Q632.227,218.953,632.148,219.407Zm-73.934-1.8q-.056-.454-.1-.912l7.476-.748c.025.248.052.5.083.741Zm74.2-.028-7.458-.918q.045-.367.082-.737l7.477.739Q632.475,217.122,632.419,217.579Zm-74.386-1.81q-.034-.459-.057-.92l7.5-.375q.018.372.046.741Zm74.567-.027-7.494-.554q.027-.366.045-.735l7.5.364Q632.633,215.28,632.6,215.741Zm-74.658-1.817q-.012-.462-.012-.926h7.514q0,.37.009.737Zm74.748-.028-7.512-.188q.009-.367.009-.737v-.055H632.7v.055Q632.7,213.436,632.689,213.9Zm-67.237-1.642-7.512-.176q.01-.465.033-.926l7.505.366Q565.461,211.885,565.452,212.255Zm59.725-.077q-.009-.37-.028-.737l7.5-.377q.023.462.035.926Zm-59.654-1.4-7.494-.54q.034-.464.079-.925l7.478.731Q565.55,210.408,565.523,210.776Zm59.58-.067q-.029-.374-.065-.744l7.477-.742q.045.455.08.913Zm-59.437-1.4-7.459-.914q.057-.46.124-.916l7.433,1.1Q565.711,208.94,565.666,209.308Zm59.29-.076q-.045-.365-.1-.728l7.43-1.119q.069.458.127.92Zm-59.074-1.386-7.4-1.28q.079-.456.168-.908l7.37,1.461Q565.944,207.48,565.881,207.846Zm58.855-.077q-.063-.362-.135-.72l7.366-1.484q.092.455.172.915ZM566.169,206.4l-7.332-1.643q.1-.455.216-.907l7.286,1.838Q566.249,206.038,566.169,206.4Zm58.275-.075q-.081-.358-.171-.712l7.283-1.848q.114.45.217.9Zm-57.916-1.356-7.241-2.009q.124-.446.259-.889l7.188,2.189Q566.627,204.609,566.528,204.965Zm57.555-.068q-.1-.358-.209-.712l7.184-2.2q.135.44.26.883Zm-57.124-1.349-7.132-2.363q.147-.443.3-.881l7.069,2.548Q567.076,203.2,566.96,203.548Zm56.689-.066q-.117-.349-.243-.695l7.063-2.564q.158.436.305.876Zm-56.188-1.326-7-2.72q.169-.434.348-.863l6.933,2.9Q567.594,201.812,567.461,202.156Zm55.684-.061q-.134-.343-.276-.681L629.8,198.5q.178.425.347.855Zm-55.115-1.3-6.857-3.071q.189-.421.387-.837l6.783,3.232Q568.182,200.452,568.03,200.793Zm54.547-.053q-.151-.336-.311-.668l6.775-3.249q.2.415.388.835Zm-53.907-1.285-6.7-3.4q.211-.415.432-.824l6.609,3.575C568.895,199.017,568.781,199.235,568.669,199.454Zm53.271-.042q-.168-.329-.344-.653l6.606-3.58q.219.4.429.815Zm-52.569-1.259-6.521-3.734q.23-.4.469-.795l6.429,3.888Q569.557,197.83,569.372,198.153Zm51.867-.034q-.185-.322-.378-.64l6.424-3.9q.238.391.466.79Zm-51.1-1.234-6.331-4.047q.253-.395.514-.781l6.218,4.218Q570.337,196.577,570.14,196.885Zm50.331-.03q-.2-.31-.4-.614l6.219-4.216q.26.383.51.772Zm-49.5-1.195-6.122-4.357q.269-.377.547-.748l6.011,4.509Q571.183,195.359,570.968,195.66Zm48.674-.029q-.214-.3-.435-.594l6.007-4.513q.278.37.547.747Zm-47.788-1.152-5.9-4.659q.285-.36.578-.714l5.787,4.793Q572.085,194.187,571.854,194.48Zm46.9-.024q-.231-.291-.467-.576l5.778-4.8q.294.354.58.715ZM572.8,193.338l-5.665-4.936q.305-.351.62-.693l5.535,5.082Q573.044,193.061,572.8,193.338Zm45.011-.018q-.244-.28-.5-.552l5.535-5.082q.311.339.615.686ZM573.8,192.25l-5.411-5.213q.32-.332.647-.656l5.286,5.341Q574.057,191.983,573.8,192.25Zm43.011-.022q-.256-.266-.519-.525l5.28-5.346q.329.325.65.658Zm-41.958-1.018-5.15-5.471q.337-.317.682-.626l5.012,5.6Q575.12,190.957,574.852,191.21Zm40.908-.018q-.269-.253-.544-.5l5.006-5.6q.346.308.683.625Zm-39.806-.968-4.876-5.717q.352-.3.712-.591l4.731,5.837Q576.234,189.985,575.953,190.224Zm38.7-.019q-.281-.239-.568-.471l4.726-5.842q.36.292.713.591Zm-37.555-.911-4.589-5.949q.366-.283.74-.556l4.439,6.063Q577.392,189.069,577.1,189.294Zm36.4-.019q-.293-.225-.591-.443l4.434-6.066q.374.273.741.556Zm-35.215-.851L574,182.252q.379-.263.765-.518l4.132,6.275Q578.592,188.213,578.29,188.424Zm34.019-.022q-.3-.211-.61-.413l4.127-6.279q.388.255.77.52Zm-32.787-.791-3.98-6.373q.39-.243.786-.478l3.826,6.467Q579.836,187.415,579.523,187.61Zm31.556-.017q-.316-.2-.638-.387l3.816-6.473q.4.233.787.476Zm-30.287-.731-3.658-6.563q.4-.223.807-.438l3.5,6.648Q581.115,186.681,580.791,186.862Zm29.008-.022q-.322-.179-.649-.35l3.483-6.658q.412.216.818.441Zm-27.7-.663-3.329-6.736q.412-.2.83-.4l3.164,6.815Q582.426,186.013,582.1,186.177Zm26.4-.023q-.333-.164-.67-.32l3.151-6.821q.42.194.835.4Zm-25.058-.6-3-6.891q.423-.183.851-.357l2.823,6.964Q583.77,185.409,583.433,185.556Zm23.714-.022q-.341-.147-.686-.286l2.808-6.969q.429.172.854.356ZM584.8,185l-2.643-7.034q.432-.162.868-.314l2.472,7.1Q585.142,184.873,584.8,185Zm20.978-.023q-.347-.13-.7-.251l2.452-7.1q.439.152.872.313Zm-19.584-.462-2.289-7.157q.435-.139.875-.269l2.13,7.206Q586.546,184.405,586.189,184.519Zm18.181-.022q-.35-.112-.7-.214l2.1-7.216q.446.13.888.27Zm-16.761-.394-1.937-7.26q.45-.12.9-.228l1.742,7.309Q587.962,184.008,587.609,184.1Zm15.342-.019q-.354-.093-.711-.178l1.732-7.312q.454.108.9.226Zm-13.907-.326-1.571-7.348q.454-.1.912-.183l1.378,7.387Q589.4,183.682,589.044,183.758Zm12.476-.014q-.361-.077-.724-.144l1.367-7.388q.456.084.907.179Zm-11.023-.258-1.207-7.416q.457-.074.918-.138l1.015,7.445Q590.858,183.427,590.5,183.486Zm9.57-.011q-.365-.059-.732-.108l1-7.446q.458.062.913.134Zm-8.109-.19-.831-7.468q.454-.051.912-.091l.661,7.485Q592.327,183.245,591.957,183.286Zm6.644-.007c-.244-.026-.488-.051-.733-.071l.629-7.488q.463.039.923.09Zm-5.17-.12-.466-7.5q.462-.029.926-.046l.276,7.509Q593.8,183.135,593.431,183.158Zm3.7,0q-.367-.022-.737-.035l.265-7.509q.463.016.925.044Zm-2.217-.051-.1-7.513q.254,0,.507,0l.412,0-.073,7.514-.339,0Z" transform="translate(-557.93 -175.586)" fill="#1a1818"/>
            </g>
          </g>
        </g>
      </g>
      <g id="Group_743" data-name="Group 743" transform="translate(577.508 189.924)">
        <g id="Group_688" data-name="Group 688" transform="translate(5.639 0)">
          <g id="Group_672" data-name="Group 672">
            <g id="Group_666" data-name="Group 666" transform="translate(5.47 9.881)">
              <path id="Path_226" data-name="Path 226" d="M719.222,298.79v-.218l-6.325-.6v.343l6.325.575Z" transform="translate(-712.897 -297.968)" fill="#1a1818"/>
            </g>
            <g id="Group_667" data-name="Group 667" transform="translate(5.47 10.688)">
              <path id="Path_227" data-name="Path 227" d="M719.222,302.76v-.218l-6.325-.51v.343l6.325.481Z" transform="translate(-712.897 -302.033)" fill="#1a1818"/>
            </g>
            <g id="Group_668" data-name="Group 668" transform="translate(5.47 9.074)">
              <path id="Path_228" data-name="Path 228" d="M719.222,294.819V294.6l-6.325-.7v.343l6.325.669Z" transform="translate(-712.897 -293.903)" fill="#1a1818"/>
            </g>
            <g id="Group_669" data-name="Group 669" transform="translate(16.682 2.914)">
              <path id="Path_229" data-name="Path 229" d="M769.878,263.011l-.5-.137v10.689l.5.01Z" transform="translate(-769.378 -262.875)" fill="#1a1818"/>
            </g>
            <g id="Group_670" data-name="Group 670" transform="translate(15.828 2.681)">
              <path id="Path_230" data-name="Path 230" d="M765.595,261.842l-.521-.142V272.6l.521.01Z" transform="translate(-765.074 -261.699)" fill="#1a1818"/>
            </g>
            <g id="Group_671" data-name="Group 671">
              <path id="Path_231" data-name="Path 231" d="M709.045,254.268l-3.069-1.417a.5.5,0,0,0-.416,0l-1.274.568v-3.523a.438.438,0,0,0-.3-.414l-3.724-1.262a.437.437,0,0,0-.372.043l-3.725,2.322-3.608-.983a.438.438,0,0,0-.423.112l-2.363,2.347a.437.437,0,0,0-.129.31v2.61a.058.058,0,0,0-.027.008l-4.043,2.576a.438.438,0,0,0-.2.366l-.031,5.206H690.9l1.421-.006,2.649-.008v.008l5.1-.013h4.217v-.026H709.3v-8.424A.437.437,0,0,0,709.045,254.268Zm-16.111-3.356,3.557.78v5.035l-.514-.067v-4.14l-.519-.111v4.183l-.445-.058v-4.22l-.541-.115v4.265l-.452-.059v-4.3l-.564-.12v4.349l-.523-.068Zm4.626,12.2h-7.547v-6.854l7.547.984Zm5.6-.311-2.712-.021V249.707l2.712.831Zm5.167-7.821.38.148a.051.051,0,0,1,.032.047v.921a.05.05,0,0,1-.067.048l-.38-.128a.051.051,0,0,1-.034-.048v-.941A.05.05,0,0,1,708.328,254.983Zm0,2.107.38.109a.05.05,0,0,1,.037.048v.923a.05.05,0,0,1-.062.049l-.38-.089a.051.051,0,0,1-.039-.049v-.944A.05.05,0,0,1,708.323,257.09Zm-1.309,2.9-.669-.09a.051.051,0,0,1-.044-.05V258.8a.05.05,0,0,1,.06-.05l.669.125a.05.05,0,0,1,.041.049v1.014A.05.05,0,0,1,707.014,259.992Zm0-2.163-.669-.157a.05.05,0,0,1-.039-.049v-1.047a.05.05,0,0,1,.064-.048l.669.193a.05.05,0,0,1,.036.048v1.012A.051.051,0,0,1,707.009,257.829Zm0-2.243-.669-.225a.05.05,0,0,1-.034-.048v-1.044a.05.05,0,0,1,.069-.047l.669.26a.05.05,0,0,1,.032.047v1.009A.05.05,0,0,1,707,255.585Zm.92,4.529-.532-.071a.05.05,0,0,1-.044-.05V259a.05.05,0,0,1,.059-.05l.532.1a.05.05,0,0,1,.041.049v.966A.05.05,0,0,1,707.925,260.114Zm-.005-2.071-.532-.125a.05.05,0,0,1-.039-.049v-.992a.05.05,0,0,1,.064-.048l.532.153a.051.051,0,0,1,.036.048v.964A.05.05,0,0,1,707.92,258.042Zm0-2.151-.532-.179a.051.051,0,0,1-.034-.048v-.989a.05.05,0,0,1,.069-.047l.532.207a.05.05,0,0,1,.032.047v.961A.05.05,0,0,1,707.915,255.891Zm.4,3.228.38.071a.051.051,0,0,1,.041.049v.926a.05.05,0,0,1-.057.05l-.38-.051a.05.05,0,0,1-.044-.05v-.946A.05.05,0,0,1,708.319,259.119Z" transform="translate(-685.342 -248.194)" fill="#1a1818"/>
            </g>
          </g>
          <g id="Group_687" data-name="Group 687" transform="translate(4.67 1.513)">
            <g id="Group_676" data-name="Group 676">
              <g id="Group_673" data-name="Group 673" transform="translate(10.437)">
                <path id="Path_232" data-name="Path 232" d="M761.441,255.816v13.076l2.712.021V256.647Zm1.242,12.084-.521-.01V256.984l.521.142Zm.834.017-.5-.01V257.217l.5.137Z" transform="translate(-761.441 -255.816)" fill="#ff8900"/>
              </g>
              <g id="Group_674" data-name="Group 674" transform="translate(2.921 1.205)">
                <path id="Path_233" data-name="Path 233" d="M724.105,267.306v-4.349l.564.12v4.3l.452.059v-4.265l.541.115v4.22l.445.058v-4.183l.519.111v4.14l.514.067v-5.035l-3.557-.78v5.352Z" transform="translate(-723.582 -261.886)" fill="#ff8900"/>
              </g>
              <g id="Group_675" data-name="Group 675" transform="translate(0 6.554)">
                <path id="Path_234" data-name="Path 234" d="M708.867,288.83v6.854h7.547v-5.87Zm7.125,3.227v.218l-6.325-.481v-.343l6.325.51Zm0-.713v.218l-6.325-.575v-.343l6.325.6Zm0-.713v.218l-6.325-.669v-.343l6.325.7Z" transform="translate(-708.867 -288.83)" fill="#ff8900"/>
              </g>
            </g>
            <g id="Group_686" data-name="Group 686" transform="translate(16.29 4.511)">
              <g id="Group_677" data-name="Group 677" transform="translate(1.958 0.762)">
                <path id="Path_235" data-name="Path 235" d="M800.855,282.381l.38.148a.051.051,0,0,1,.032.047v.921a.05.05,0,0,1-.066.048l-.38-.128a.051.051,0,0,1-.034-.048v-.941A.05.05,0,0,1,800.855,282.381Z" transform="translate(-800.786 -282.377)" fill="#ff8900"/>
              </g>
              <g id="Group_678" data-name="Group 678" transform="translate(1.958 2.871)">
                <path id="Path_236" data-name="Path 236" d="M800.85,293l.38.109a.05.05,0,0,1,.036.048v.923a.05.05,0,0,1-.062.049l-.38-.089a.05.05,0,0,1-.039-.049v-.944A.05.05,0,0,1,800.85,293Z" transform="translate(-800.786 -292.998)" fill="#ff8900"/>
              </g>
              <g id="Group_679" data-name="Group 679" transform="translate(0 4.535)">
                <path id="Path_237" data-name="Path 237" d="M791.638,302.622l-.669-.09a.051.051,0,0,1-.044-.05v-1.049a.05.05,0,0,1,.06-.05l.669.125a.05.05,0,0,1,.041.049v1.014A.05.05,0,0,1,791.638,302.622Z" transform="translate(-790.925 -301.383)" fill="#ff8900"/>
              </g>
              <g id="Group_680" data-name="Group 680" transform="translate(0 2.307)">
                <path id="Path_238" data-name="Path 238" d="M791.633,291.464l-.669-.157a.051.051,0,0,1-.039-.049V290.21a.05.05,0,0,1,.064-.048l.669.193a.05.05,0,0,1,.037.048v1.012A.05.05,0,0,1,791.633,291.464Z" transform="translate(-790.925 -290.16)" fill="#ff8900"/>
              </g>
              <g id="Group_681" data-name="Group 681">
                <path id="Path_239" data-name="Path 239" d="M791.628,279.9l-.669-.225a.05.05,0,0,1-.034-.048v-1.044a.05.05,0,0,1,.069-.047l.669.26a.05.05,0,0,1,.032.047v1.009A.05.05,0,0,1,791.628,279.9Z" transform="translate(-790.925 -278.537)" fill="#ff8900"/>
              </g>
              <g id="Group_682" data-name="Group 682" transform="translate(1.047 4.731)">
                <path id="Path_240" data-name="Path 240" d="M796.776,303.533l-.532-.071a.051.051,0,0,1-.044-.05v-.994a.05.05,0,0,1,.06-.05l.532.1a.05.05,0,0,1,.041.049v.966A.05.05,0,0,1,796.776,303.533Z" transform="translate(-796.2 -302.368)" fill="#ff8900"/>
              </g>
              <g id="Group_683" data-name="Group 683" transform="translate(1.047 2.609)">
                <path id="Path_241" data-name="Path 241" d="M796.771,292.894l-.532-.125a.05.05,0,0,1-.039-.049v-.992a.05.05,0,0,1,.064-.048l.532.153a.051.051,0,0,1,.036.048v.964A.05.05,0,0,1,796.771,292.894Z" transform="translate(-796.2 -291.678)" fill="#ff8900"/>
              </g>
              <g id="Group_684" data-name="Group 684" transform="translate(1.047 0.408)">
                <path id="Path_242" data-name="Path 242" d="M796.767,281.858l-.532-.179a.051.051,0,0,1-.034-.048v-.989a.051.051,0,0,1,.069-.047l.532.207a.05.05,0,0,1,.032.047v.961A.05.05,0,0,1,796.767,281.858Z" transform="translate(-796.2 -280.592)" fill="#ff8900"/>
              </g>
              <g id="Group_685" data-name="Group 685" transform="translate(1.958 4.901)">
                <path id="Path_243" data-name="Path 243" d="M800.846,303.224l.38.071a.05.05,0,0,1,.041.049v.926a.05.05,0,0,1-.057.05l-.38-.051a.05.05,0,0,1-.044-.05v-.946A.05.05,0,0,1,800.846,303.224Z" transform="translate(-800.786 -303.224)" fill="#ff8900"/>
              </g>
            </g>
          </g>
        </g>
        <g id="Group_742" data-name="Group 742" transform="translate(0 9.056)">
          <g id="Group_737" data-name="Group 737">
            <g id="Group_689" data-name="Group 689" transform="translate(0.002 0.715)">
              <path id="Path_244" data-name="Path 244" d="M692.333,312.179c-.415-2.733-1.227-6.221-3.838-8.961-5.215-5.472-11.91-7.087-19.9-4.8-6.625,1.9-10.968,6.965-11.618,13.556a2.662,2.662,0,0,0,.413,2.093,2.322,2.322,0,0,0,1.8.578h.129c3.624-.073,7.314-.06,10.883-.047q2.116.007,4.233.01h.1q2.115,0,4.228-.007c3.73-.008,7.585-.017,11.375.031a2.384,2.384,0,0,0,1.862-.592A2.3,2.3,0,0,0,692.333,312.179Zm-2.011.322H659.034a12,12,0,0,1,5.023-9.583c5.686-4.13,11.961-4.673,18.652-1.617C687.208,303.356,689.768,307.122,690.322,312.5Z" transform="translate(-656.944 -297.412)" fill="#1a1818"/>
            </g>
            <g id="Group_690" data-name="Group 690" transform="translate(2.092 2.656)">
              <path id="Path_245" data-name="Path 245" d="M691.146,309.137c-6.691-3.057-12.966-2.513-18.652,1.617a12,12,0,0,0-5.023,9.583H698.76C698.205,314.959,695.646,311.193,691.146,309.137Z" transform="translate(-667.471 -307.19)" fill="#ff8900"/>
            </g>
            <g id="Group_693" data-name="Group 693" transform="translate(17.707)">
              <g id="Group_691" data-name="Group 691" transform="translate(0.444 0.444)">
                <path id="Path_246" data-name="Path 246" d="M750.1,297.37c-.264.381-1.172,1.032-1.55.767s-.085-1.346.179-1.727a.833.833,0,0,1,1.163-.209A.842.842,0,0,1,750.1,297.37Z" transform="translate(-748.371 -296.05)" fill="#fff"/>
              </g>
              <g id="Group_692" data-name="Group 692">
                <path id="Path_247" data-name="Path 247" d="M746.979,296.848a.814.814,0,0,1-.476-.142c-.691-.484-.265-1.862.069-2.343a1.277,1.277,0,0,1,1.782-.319,1.287,1.287,0,0,1,.318,1.785h0a2.812,2.812,0,0,1-1.5,1A1.109,1.109,0,0,1,746.979,296.848Zm.644-2.148a.388.388,0,0,0-.321.169.6.6,0,1,0,.642.454h0a.4.4,0,0,0-.1-.553A.386.386,0,0,0,747.623,294.7Z" transform="translate(-746.132 -293.812)" fill="#1a1818"/>
              </g>
            </g>
            <g id="Group_696" data-name="Group 696" transform="translate(16.567 4.315)">
              <g id="Group_694" data-name="Group 694" transform="translate(0.444 0.442)">
                <path id="Path_248" data-name="Path 248" d="M743.314,317.792c.454-.082,1.554.1,1.635.559s-.887,1.012-1.342,1.094a.84.84,0,0,1-.294-1.653Z" transform="translate(-742.626 -317.774)" fill="#fff"/>
              </g>
              <g id="Group_695" data-name="Group 695">
                <path id="Path_249" data-name="Path 249" d="M741.667,318.118a1.281,1.281,0,0,1-1.257-1.058,1.284,1.284,0,0,1,1.034-1.489h0a2.816,2.816,0,0,1,1.76.353.875.875,0,0,1,.39.565c.148.833-1.124,1.5-1.7,1.609A1.306,1.306,0,0,1,741.667,318.118Zm.116-1.688a1.051,1.051,0,0,0-.182.014h0a.4.4,0,0,0-.154.716.385.385,0,0,0,.291.064.568.568,0,1,0,.045-.794Z" transform="translate(-740.39 -315.547)" fill="#1a1818"/>
              </g>
            </g>
            <g id="Group_699" data-name="Group 699" transform="translate(22.942 1.301)">
              <g id="Group_697" data-name="Group 697" transform="translate(0.446 0.444)">
                <path id="Path_250" data-name="Path 250" d="M774.869,304.345c-.168-.432-.2-1.552.227-1.721s1.161.677,1.329,1.109a.836.836,0,1,1-1.556.612Z" transform="translate(-774.752 -302.602)" fill="#fff"/>
              </g>
              <g id="Group_698" data-name="Group 698">
                <path id="Path_251" data-name="Path 251" d="M773.844,303.532a1.28,1.28,0,0,1-1.191-.817h0c-.213-.546-.307-1.986.478-2.3a.869.869,0,0,1,.682.037,2.819,2.819,0,0,1,1.223,1.324,1.286,1.286,0,0,1-.724,1.662A1.272,1.272,0,0,1,773.844,303.532Zm-.379-2.262a2.019,2.019,0,0,0,.015,1.122h0a.391.391,0,0,0,.209.218.387.387,0,0,0,.3.005.4.4,0,0,0,.222-.514A2.011,2.011,0,0,0,773.465,301.27Z" transform="translate(-772.503 -300.367)" fill="#1a1818"/>
              </g>
            </g>
            <g id="Group_702" data-name="Group 702" transform="translate(22.396 5.075)">
              <g id="Group_700" data-name="Group 700" transform="translate(0.443 0.444)">
                <path id="Path_252" data-name="Path 252" d="M772.559,323.392c-.323-.331-.792-1.348-.462-1.673s1.332.166,1.655.5a.843.843,0,0,1-.012,1.188A.833.833,0,0,1,772.559,323.392Z" transform="translate(-771.985 -321.612)" fill="#fff"/>
              </g>
              <g id="Group_701" data-name="Group 701">
                <path id="Path_253" data-name="Path 253" d="M771.367,322.3h-.013a1.269,1.269,0,0,1-.9-.386c-.409-.419-1.057-1.706-.456-2.3a.87.87,0,0,1,.643-.234,2.808,2.808,0,0,1,1.641.737,1.289,1.289,0,0,1-.018,1.813A1.269,1.269,0,0,1,771.367,322.3Zm-.731-2.034a2.009,2.009,0,0,0,.451,1.028h0a.388.388,0,0,0,.275.118h0a.387.387,0,0,0,.274-.113.4.4,0,0,0,.005-.562,2,2,0,0,0-1.009-.472Z" transform="translate(-769.753 -319.377)" fill="#1a1818"/>
              </g>
            </g>
            <g id="Group_705" data-name="Group 705" transform="translate(27.836 3.761)">
              <g id="Group_703" data-name="Group 703" transform="translate(0.443 0.444)">
                <path id="Path_254" data-name="Path 254" d="M801.059,316.645c-.454.1-1.564-.052-1.661-.5s.858-1.035,1.312-1.131a.836.836,0,1,1,.349,1.635Z" transform="translate(-799.392 -314.992)" fill="#fff"/>
              </g>
              <g id="Group_704" data-name="Group 704">
                <path id="Path_255" data-name="Path 255" d="M797.158,314.278a.931.931,0,0,1,.164-.5,2.823,2.823,0,0,1,1.506-.992,1.285,1.285,0,0,1,1.522.985,1.279,1.279,0,0,1-.989,1.517h0c-.574.121-2.01-.02-2.186-.845A.751.751,0,0,1,797.158,314.278Zm2.333-.236a.383.383,0,0,0-.009-.086.4.4,0,0,0-.47-.3,2.018,2.018,0,0,0-.944.6,2.022,2.022,0,0,0,1.109.167h0a.393.393,0,0,0,.25-.172A.386.386,0,0,0,799.49,314.042Z" transform="translate(-797.158 -312.757)" fill="#1a1818"/>
              </g>
            </g>
            <g id="Group_708" data-name="Group 708" transform="translate(19.795 7.326)">
              <g id="Group_706" data-name="Group 706" transform="translate(0.444 0.444)">
                <path id="Path_256" data-name="Path 256" d="M758.887,334.433c.021-.463.443-1.5.9-1.479s.786,1.093.765,1.557a.836.836,0,1,1-1.669-.077Z" transform="translate(-758.886 -332.953)" fill="#fff"/>
              </g>
              <g id="Group_707" data-name="Group 707">
                <path id="Path_257" data-name="Path 257" d="M757.932,333.963h-.06a1.284,1.284,0,0,1-1.219-1.341,2.921,2.921,0,0,1,.338-1.108c.358-.679.755-.808,1.03-.794.843.039,1.214,1.434,1.188,2.02a1.281,1.281,0,0,1-1.277,1.224Zm.047-2.332a2.021,2.021,0,0,0-.44,1.03.4.4,0,0,0,.373.414.382.382,0,0,0,.281-.1.4.4,0,0,0,.128-.275A2.021,2.021,0,0,0,757.979,331.631Z" transform="translate(-756.651 -330.717)" fill="#1a1818"/>
              </g>
            </g>
            <g id="Group_711" data-name="Group 711" transform="translate(15.53 8.861)">
              <g id="Group_709" data-name="Group 709" transform="translate(0.444 0.444)">
                <path id="Path_258" data-name="Path 258" d="M738.357,342.4c-.4-.226-1.138-1.068-.914-1.473s1.324-.219,1.727.007a.842.842,0,0,1,.323,1.142A.833.833,0,0,1,738.357,342.4Z" transform="translate(-737.401 -340.685)" fill="#fff"/>
              </g>
              <g id="Group_710" data-name="Group 710">
                <path id="Path_259" data-name="Path 259" d="M736.971,341.156a1.267,1.267,0,0,1-.622-.164c-.51-.286-1.494-1.337-1.085-2.075a.872.872,0,0,1,.553-.407,2.8,2.8,0,0,1,1.78.242,1.287,1.287,0,0,1,.494,1.745,1.281,1.281,0,0,1-1.12.66Zm-.91-1.8a2,2,0,0,0,.722.858h0a.389.389,0,0,0,.531-.153.4.4,0,0,0-.152-.54A1.974,1.974,0,0,0,736.061,339.36Z" transform="translate(-735.167 -338.45)" fill="#1a1818"/>
              </g>
            </g>
            <g id="Group_714" data-name="Group 714" transform="translate(25.919 7.591)">
              <g id="Group_712" data-name="Group 712" transform="translate(0.446 0.444)">
                <path id="Path_260" data-name="Path 260" d="M791.45,335.542c-.227.4-1.071,1.137-1.472.908s-.209-1.332.018-1.736a.833.833,0,0,1,1.139-.317A.842.842,0,0,1,791.45,335.542Z" transform="translate(-789.745 -334.288)" fill="#fff"/>
              </g>
              <g id="Group_713" data-name="Group 713">
                <path id="Path_261" data-name="Path 261" d="M788.356,335.144a.794.794,0,0,1-.4-.1c-.733-.417-.437-1.829-.149-2.339a1.277,1.277,0,0,1,1.745-.485,1.288,1.288,0,0,1,.483,1.748h0a2.815,2.815,0,0,1-1.4,1.136A1.052,1.052,0,0,1,788.356,335.144Zm.568-2.205a.392.392,0,0,0-.341.2.6.6,0,1,0,.681.392h0a.4.4,0,0,0-.148-.541A.385.385,0,0,0,788.924,332.939Z" transform="translate(-787.5 -332.051)" fill="#1a1818"/>
              </g>
            </g>
            <g id="Group_717" data-name="Group 717" transform="translate(27.615 11.364)">
              <g id="Group_715" data-name="Group 715" transform="translate(0.443 0.444)">
                <path id="Path_262" data-name="Path 262" d="M799.88,353.81c.18.427.245,1.546-.18,1.727s-1.179-.645-1.359-1.072a.836.836,0,1,1,1.539-.655Z" transform="translate(-798.275 -353.297)" fill="#fff"/>
              </g>
              <g id="Group_716" data-name="Group 716">
                <path id="Path_263" data-name="Path 263" d="M797.779,354.212a1,1,0,0,1-.378-.079,2.814,2.814,0,0,1-1.259-1.29,1.286,1.286,0,0,1,.679-1.681,1.277,1.277,0,0,1,1.677.682c.228.541.361,1.977-.415,2.307A.777.777,0,0,1,797.779,354.212Zm-.458-2.264a.387.387,0,0,0-.152.031.4.4,0,0,0-.208.52.6.6,0,1,0,.721-.31h0a.392.392,0,0,0-.215-.213A.386.386,0,0,0,797.321,351.947Z" transform="translate(-796.042 -351.06)" fill="#1a1818"/>
              </g>
            </g>
            <g id="Group_720" data-name="Group 720" transform="translate(22.893 11.807)">
              <g id="Group_718" data-name="Group 718" transform="translate(0.444 0.444)">
                <path id="Path_264" data-name="Path 264" d="M775.582,355.564c.439.142,1.325.823,1.184,1.264s-1.256.477-1.695.335a.839.839,0,0,1,.511-1.6Z" transform="translate(-774.491 -355.524)" fill="#fff"/>
              </g>
              <g id="Group_719" data-name="Group 719">
                <path id="Path_265" data-name="Path 265" d="M773.884,355.888a2.588,2.588,0,0,1-.74-.095,1.285,1.285,0,0,1-.192-2.364,1.27,1.27,0,0,1,.975-.079h0c.556.18,1.728,1.017,1.47,1.822a.874.874,0,0,1-.462.508A2.4,2.4,0,0,1,773.884,355.888Zm-.349-1.713a.387.387,0,0,0-.177.043.393.393,0,0,0-.2.231.4.4,0,0,0,.253.5.6.6,0,1,0,.238-.754A.392.392,0,0,0,773.535,354.175Z" transform="translate(-772.256 -353.288)" fill="#1a1818"/>
              </g>
            </g>
            <g id="Group_723" data-name="Group 723" transform="translate(31.044 8.451)">
              <g id="Group_721" data-name="Group 721" transform="translate(0.443 0.444)">
                <path id="Path_266" data-name="Path 266" d="M817.33,340.162c-.387.253-1.472.512-1.723.123s.426-1.279.813-1.532a.833.833,0,0,1,1.156.247A.842.842,0,0,1,817.33,340.162Z" transform="translate(-815.553 -338.618)" fill="#fff"/>
              </g>
              <g id="Group_722" data-name="Group 722">
                <path id="Path_267" data-name="Path 267" d="M814.358,339.134a1.607,1.607,0,0,1-.336-.033.873.873,0,0,1-.578-.369c-.458-.71.454-1.824.944-2.144a1.277,1.277,0,0,1,1.771.378,1.288,1.288,0,0,1-.376,1.774h0A2.994,2.994,0,0,1,814.358,339.134Zm-.148-.9A1.985,1.985,0,0,0,815.3,338a.4.4,0,0,0,.115-.549.39.39,0,0,0-.247-.171.382.382,0,0,0-.293.055A2,2,0,0,0,814.21,338.237Z" transform="translate(-813.319 -336.381)" fill="#1a1818"/>
              </g>
            </g>
            <g id="Group_734" data-name="Group 734" transform="translate(0.501 3.467)">
              <g id="Group_724" data-name="Group 724" transform="translate(0 11.097)">
                <rect id="Rectangle_104" data-name="Rectangle 104" width="7.803" height="0.672" rx="0.336" fill="#1a1818"/>
              </g>
              <g id="Group_725" data-name="Group 725" transform="translate(0.229 9.951)">
                <rect id="Rectangle_105" data-name="Rectangle 105" width="7.57" height="0.669" rx="0.334" fill="#1a1818"/>
              </g>
              <g id="Group_726" data-name="Group 726" transform="translate(0.67 8.719)">
                <rect id="Rectangle_106" data-name="Rectangle 106" width="7.336" height="0.666" rx="0.333" fill="#1a1818"/>
              </g>
              <g id="Group_727" data-name="Group 727" transform="translate(1.303 7.429)">
                <rect id="Rectangle_107" data-name="Rectangle 107" width="7.103" height="0.663" rx="0.331" fill="#1a1818"/>
              </g>
              <g id="Group_728" data-name="Group 728" transform="translate(2.111 6.109)">
                <rect id="Rectangle_108" data-name="Rectangle 108" width="6.869" height="0.66" rx="0.33" fill="#1a1818"/>
              </g>
              <g id="Group_729" data-name="Group 729" transform="translate(3.074 4.785)">
                <rect id="Rectangle_109" data-name="Rectangle 109" width="6.636" height="0.657" rx="0.328" fill="#1a1818"/>
              </g>
              <g id="Group_730" data-name="Group 730" transform="translate(4.174 3.485)">
                <rect id="Rectangle_110" data-name="Rectangle 110" width="6.402" height="0.654" rx="0.327" fill="#1a1818"/>
              </g>
              <g id="Group_731" data-name="Group 731" transform="translate(5.392 2.236)">
                <rect id="Rectangle_111" data-name="Rectangle 111" width="6.168" height="0.651" rx="0.325" fill="#1a1818"/>
              </g>
              <g id="Group_732" data-name="Group 732" transform="translate(6.708 1.065)">
                <rect id="Rectangle_112" data-name="Rectangle 112" width="5.935" height="0.648" rx="0.324" fill="#1a1818"/>
              </g>
              <g id="Group_733" data-name="Group 733" transform="translate(8.105)">
                <rect id="Rectangle_113" data-name="Rectangle 113" width="5.701" height="0.645" rx="0.322" fill="#1a1818"/>
              </g>
            </g>
            <g id="Group_735" data-name="Group 735" transform="translate(0 19.34)">
              <path id="Path_268" data-name="Path 268" d="M689.586,394.758H683.88a1.861,1.861,0,0,1,1.686-1.517l.118-.011H691.4a1,1,0,0,0,0-1.993h-6.085a1,1,0,0,0-.154.013,3.073,3.073,0,0,0-2.912,2.293,17.062,17.062,0,0,1-1.638,3.353c-.195.314-.508.691-.9.7-.328.014-.674-.235-.995-.69a11.6,11.6,0,0,1-.942-1.727c-.2-.427-.414-.869-.657-1.291-.709-1.229-1.367-1.836-2.132-1.968a3.113,3.113,0,0,0-2.473,1.013,1.7,1.7,0,0,1-2.731-.1,4.86,4.86,0,0,0-3.9-1.583l-.049,0h-7.91a1,1,0,0,0,0,1.993h7.9a4.37,4.37,0,0,1,3.128,1.568H657.53a.444.444,0,0,0-.444.438,9.148,9.148,0,0,0,2.634,6.6,6.765,6.765,0,0,0,4.8,1.97c.106,0,.213,0,.321-.007,5.769-.251,11.943-.256,19.428-.016a7.291,7.291,0,0,0,7.642-5.9l.046-.184c.336-1.33.505-2,.137-2.471S691.052,394.758,689.586,394.758Zm-15.336-.917a.437.437,0,0,1,.679.112l.359.654h-1.872Zm10.008,7.885c-1.891,0-3.828-.016-5.7-.032-4.321-.038-8.788-.076-13.179.1-3.47.135-5.286-1.376-6.159-4.994.315-.007.625-.007.913-.008q2.959-.008,5.918-.005c2.918,0,5.934,0,8.9-.017a1.965,1.965,0,0,1,1.971,1,3.321,3.321,0,0,0,2.54,1.8c1.025.046,2.066-.572,3.071-1.848a2.646,2.646,0,0,1,1.665-.886c1.49-.1,3.027-.079,4.513-.062.426,0,.853.01,1.281.012C689.385,400.508,687.933,401.724,684.258,401.725Z" transform="translate(-656.935 -391.237)" fill="#1a1818"/>
            </g>
            <g id="Group_736" data-name="Group 736" transform="translate(2.289 24.855)">
              <path id="Path_269" data-name="Path 269" d="M687.806,423.958c1.868.016,3.8.035,5.7.032,3.675,0,5.126-1.217,5.742-4.948-.428,0-.855-.007-1.281-.012-1.486-.017-3.023-.035-4.513.062a2.646,2.646,0,0,0-1.665.886c-1.006,1.275-2.046,1.893-3.071,1.848a3.321,3.321,0,0,1-2.54-1.8,1.965,1.965,0,0,0-1.971-1c-2.968.017-5.985.017-8.9.017q-2.959,0-5.918.005c-.288,0-.6,0-.913.008.873,3.618,2.689,5.129,6.159,4.994C679.018,423.881,683.486,423.92,687.806,423.958Z" transform="translate(-668.468 -419.016)" fill="#ff8900"/>
            </g>
          </g>
          <g id="Group_741" data-name="Group 741" transform="translate(0.797 25.756)">
            <g id="Group_738" data-name="Group 738" transform="translate(1.658 2.783)">
              <rect id="Rectangle_114" data-name="Rectangle 114" width="7.803" height="0.672" rx="0.336" fill="#1a1818"/>
            </g>
            <g id="Group_739" data-name="Group 739">
              <rect id="Rectangle_115" data-name="Rectangle 115" width="7.803" height="0.672" rx="0.336" fill="#1a1818"/>
            </g>
            <g id="Group_740" data-name="Group 740" transform="translate(0.65 1.404)">
              <rect id="Rectangle_116" data-name="Rectangle 116" width="7.803" height="0.672" rx="0.336" fill="#1a1818"/>
            </g>
          </g>
        </g>
      </g>
    </g>
  </g>
</svg>
